<svg id="Layer_1" data-name="Layer 1" xmlns="http://www.w3.org/2000/svg" viewBox="0 0 110.36 110.36"><defs><style>.cls-1{fill:#fff;}</style></defs><rect x="4.67" y="2.76" width="100" height="70.87"/><circle cx="55.18" cy="55.18" r="55.18"/><path class="cls-1" d="M32.08,8.9c.79-.54.59-1.35.64-2.11a12.28,12.28,0,0,1,.38-2.34A.75.75,0,0,1,34.33,4c.73.4,1.39.92,2.08,1.39.29.21.57.43.87.62a2.22,2.22,0,0,0,2.6-.13c5-3.06,10.27-4,15.91-1.53a9.09,9.09,0,0,0,7.63-.21,6.13,6.13,0,0,0,1-.74A3.74,3.74,0,0,1,65.64,6a28,28,0,0,1,0,2.9l.93.14-.1.56c1.11.52,2.25,1,3.34,1.56,13.38,7,21.62,18,24,32.91C96,57.25,92.45,69.11,84,79.48a2.35,2.35,0,0,0-.45,1.12,13.22,13.22,0,0,1-2.25,6.52,5.46,5.46,0,0,1-6.93,1.66,1.39,1.39,0,0,0-1.44.11,42.78,42.78,0,0,1-17,6,43.81,43.81,0,0,1-29.28-6.26.91.91,0,0,0-1-.08,7.67,7.67,0,0,1-10-3.82,19.94,19.94,0,0,1-1.72-7.24,3.08,3.08,0,0,0-.54-1.56A43.51,43.51,0,0,1,5.74,48.25,43.54,43.54,0,0,1,18.65,19.51a43.76,43.76,0,0,1,13.44-9.26c.84-.37.86-.47.18-1.14A2.2,2.2,0,0,1,32.08,8.9ZM71.77,87.41,71.35,87l-.32-.3a12.11,12.11,0,0,1-3.54-6.12,1,1,0,0,0-1.06-.88c-1.59-.14-3.17-.35-4.75-.5a2.44,2.44,0,0,0-1,.12,30.58,30.58,0,0,1-21.55-.12,1.5,1.5,0,0,0-1,0c-1.61.65-3.2,1.35-4.81,2l-1.84.76V77.25c-.32,1.75-.55,3.49-1,5.18a10.85,10.85,0,0,1-2.64,4.69,42.59,42.59,0,0,0,43.95.29ZM64.91,27.19c.14.32.29.51.27.67a.52.52,0,0,1-.38.31c-.47,0-.64.26-.85.6a8.56,8.56,0,0,1-4.85,4.15,4.18,4.18,0,0,1-2.45.1c1.31-.69,2.5-1.22,3.59-1.91a10.8,10.8,0,0,0,2.84-2.84,1.57,1.57,0,0,0-1.81.6,11.14,11.14,0,0,1-2.16,1.88,2.32,2.32,0,0,1-1.91.39l3-2.73-.09-.2c-.87,0-1.74,0-2.61,0a.57.57,0,0,0-.27.13c-1.48,1.35-2.73,2.86-2.75,5a21.6,21.6,0,0,0,.4,3.18c.24,1.74-.44,2.55-2.19,2.55-1.17,0-2.35-.08-3.52,0a22.47,22.47,0,0,0-2.44.27,1.6,1.6,0,0,1-2.09-1.5A12.89,12.89,0,0,1,44.63,36a12.53,12.53,0,0,0,0-1.5A9.83,9.83,0,0,0,42,29.31a1.6,1.6,0,0,0-2.18-.46,9.57,9.57,0,0,0-.89.64c.24.23.47.48.73.69.45.34.93.65,1.39,1l.63.4-.19.25a3.31,3.31,0,0,1-.63-.1,23,23,0,0,1-6.37-3.23A1.77,1.77,0,0,1,33.73,27a18.06,18.06,0,0,0-.37-2.16,16.89,16.89,0,0,1-.43-1.66,9.67,9.67,0,0,1,0-2,7.42,7.42,0,0,1,.37-1.16l.23,0c0,.24.11.48.13.72.06.67.11,1.34.12,2,0,.36.18.51.5.48s.66-.1,1.11-.17a7.87,7.87,0,0,1-1.3-3.79,1,1,0,0,0-.09-.3c-.18-.4-.51-.53-.78-.18a4.76,4.76,0,0,0-.88,1.48,9.3,9.3,0,0,0-.29,2.05c-.09,1.16-.12,2.32-.19,3.55l.81-.43c.11,1,.19,1.83.29,2.69a6.12,6.12,0,0,0,.58,2.57c.17-.17.26-.28.36-.39.65-.71,1.12-.68,1.62.17.3.5.53,1.05.79,1.57l.48,1,.77-.46c1.34-.76,2.09-.47,2.6,1l.44,1.27a3.11,3.11,0,0,1,.53-.36c.38-.14.87-.42,1.13-.29s.37.7.39,1.08c0,.84-.05,1.68,0,2.52.06,1.28.18,2.57.27,3.85l.22.08a2.82,2.82,0,0,1,.24-.36c.86-.93,1.21-.86,1.69.35.14.37.29.74.47,1.18.31-.34.51-.57.73-.8.91-.92,1.69-.73,2.06.52.09.3.21.6.35,1,.67-.75,1.25-1.35,1.76-2,.35-.44.61-.42,1,0s.74.83,1,1.13c.71-.57,1.28-1.33,2-1.51a7.16,7.16,0,0,1,2.52.3,5,5,0,0,0,.07-.84c-.08-1.5-.19-3-.29-4.51a14.08,14.08,0,0,1-.07-1.45c0-.43.29-.62.69-.39a14.08,14.08,0,0,1,1.29.89c.34.25.67.52,1,.8.7-1.05,1.3-2,2-3a7.56,7.56,0,0,1,1.29-1.36c.45-.38.78-.27,1.07.25.13.22.23.45.42.81.15-.38.27-.58.33-.8.25-.95.53-1.9.72-2.86.1-.52.29-.64.76-.44a8.93,8.93,0,0,0,1.1.34l-.86-5.24,1.9,1.25c.23-2.82-1.19-5.07-2.16-7.51h1.74a5.22,5.22,0,0,0-.45-1,15,15,0,0,0-1.7-1.93c-1.6-1.41-3.28-2.75-4.9-4.14a19.16,19.16,0,0,1-1.33-1.4c.42-.66.8-1.19,1.12-1.76s.54-1.14.87-1.84a7.3,7.3,0,0,1-5.31.35l1-.28A11.69,11.69,0,0,0,54.9,4.41C51,3,47.12,3,43.41,5.23a26,26,0,0,1-3.33,1.46c-.53.22-1.09.36-1.62.53l1.73,2.2,7.55-2.54c.09-.81,0-1-.89-.89-.66.06-1.33.17-2,.28s-1,.19-1.69.31a8.75,8.75,0,0,1,9.88-1l-3.6.3v1a8.39,8.39,0,0,1,.87,0c1.71.21,3.43.33,5.1.67a6,6,0,0,1,4.3,3.26c-.47-.21-.88-.51-1.34-.73-.18-.1-.45,0-.68,0a2.55,2.55,0,0,0,.11.74c.08.17.31.27.48.38.69.49,1.39.95,2.07,1.45a5.07,5.07,0,0,1,2.35,4.16.73.73,0,0,0,.32.51A2.23,2.23,0,0,1,63.38,20c.27.79.51,1.55.77,2.3a2.15,2.15,0,0,0,.31.38,1.58,1.58,0,0,0,.37-.41,3.4,3.4,0,0,0,.15-.74c.44.82.44.82,1.3.82h.63c.42,0,.49.19.37.58H66.7c-1.14,0-1.14,0-1.23,1.14,0,.4,0,.79-.07,1.19l.13-.08.56.69C65.34,26,65.34,26,64.91,27.19ZM92.3,46.71c0-.21,0-.31,0-.41-.12-.85-.2-1.71-.36-2.55C89.08,28.84,80.71,18.24,67,11.84c-.52-.24-.78,0-1.06.32a.67.67,0,0,0,.1,1,5.14,5.14,0,0,1,.38.42,14.67,14.67,0,0,1,3,4.57c.14.41.21.86.31,1.29l-.17.12L68,19s0,.06,0,.1l.43,1.24c.73,2.26,1.52,4.51,1.07,7a.43.43,0,0,0,.11.33c.83.78,1.66,1.53,2.54,2.34a7.94,7.94,0,0,1,.61-.82,1,1,0,0,1,.54-.37,10.67,10.67,0,0,1,4.06.14A6.53,6.53,0,0,1,81,31.17l-.9.18c.39,1.41.69,1.69,2,1.84.64.08,1.3.05,1.94.11a3.38,3.38,0,0,1,2,2.28s0,.1,0,.12c-.46.25-.17.58-.09.87.15.57.34,1.13.51,1.69.36,1.2.36,1.18,1.6,1.28a2.88,2.88,0,0,1,1.45.28,16.57,16.57,0,0,1,1.84,2l-1,.28c.4,1.15,1.72,2.14.54,3.5ZM36.48,20.6a6.17,6.17,0,0,0,.16.65c.24.65.53,1.28.77,1.93a.67.67,0,0,0,.69.5c.86.05,1.71.14,2.57.19a.87.87,0,0,0,.59-.12A3.77,3.77,0,0,1,44.84,23a15.08,15.08,0,0,0,6.31,0,12.78,12.78,0,0,1,1.73-.3c.84-.07,1.26.43,1,1.22a4.6,4.6,0,0,1-.92,1.53,17.66,17.66,0,0,0-2.5,3.2c1.86.81,5,.87,5.38-.72H54.07l-.1-.2c.16-.11.3-.29.46-.29.54,0,1.09,0,1.64,0,.9,0,1.1-.29.89-1.3-.59,0-1.19,0-1.79,0-.12,0-.24-.15-.36-.24.13-.08.24-.21.37-.22.33,0,.67,0,1,0,1,0,1.06-.1.91-1.1-.05-.36-.18-.49-.57-.44a9.52,9.52,0,0,1-1.31,0l0-.28a5.74,5.74,0,0,1,1.1-.44c.55-.1,1.13-.1,1.69-.16,1.43-.16,2.87-.32,4.3-.5a.8.8,0,0,0,.55-.31A1.57,1.57,0,0,0,62.37,21c-.53-.43-.75.11-1,.34a2.79,2.79,0,0,1-2.18.77c2.46-2,2.71-2.4,2.12-3.41-1.08,1.6-2.75,2.09-4.5,2.44a1.8,1.8,0,0,1,.41-.56c.82-.81,1.65-1.6,2.44-2.44a2.71,2.71,0,0,0,.39-.88,2.59,2.59,0,0,0-1,0c-1.24.49-2.46,1-3.69,1.57l-.67.26a2.11,2.11,0,0,1,1.23-1.35c1-.55,2-1.05,2.92-1.62,1.5-.89,1.67-2.06.41-3.27a25.83,25.83,0,0,0-2.36-1.76,1.11,1.11,0,0,1-.43-.54,1.9,1.9,0,0,0-1.06-1.33c-1.65-.81-3.41-.68-5.18-.7,0,.59,0,.92.61,1.14a2.74,2.74,0,0,1,1.67,1.53l-1.81.11-.09.21L51.68,13A2.77,2.77,0,0,1,51,13c-.6-.19-.72,0-.61.58,0,.12-.21.42-.32.42-.52,0-.65.29-.66.72s0,.67-.06,1a3.07,3.07,0,0,1-.22.62l-.17,0-.44-.87a4.16,4.16,0,0,1-1.48,2.47c-.35.27-.26.58.14.79.19.09.37.2.56.3l0,.2a7.38,7.38,0,0,0-.81.07,5.1,5.1,0,0,0-.63.2c.09.22.16.44.26.66s.17.13.21.22a2.86,2.86,0,0,1,.2.48c-.17,0-.38.15-.51.08-.73-.34-1.06,0-1.36.64a7,7,0,0,1-.78,1l-.21-.11a2.41,2.41,0,0,1,.23-1.84c.46-1,.34-1.34-.75-1.67l-1.3-.35.34-.57c-.51-.53-1-1-1.41-1.51s-.63-.73-.94-1.11c-.12-.15-.22-.32-.33-.48.18-.11.36-.3.55-.31a13.83,13.83,0,0,1,1.82,0,4.35,4.35,0,0,1,3.57,1.68,1.78,1.78,0,0,0,.66.46c.63.33,1,.1,1-.61A9.09,9.09,0,0,0,47.46,15a1.6,1.6,0,0,0,.83-1.78l-1,.77-.22-.17c.31-.58.62-1.15.91-1.74a2.59,2.59,0,0,0,.11-.58,1.6,1.6,0,0,0-.58,0c-.44.16-.85.38-1.27.58l-.17-.16a6.23,6.23,0,0,1,.7-1.1c.44-.44,1-.78,1.45-1.19s.4-.79-.22-1a2.52,2.52,0,0,0-.54-.14c-2.42-.37-4,1.12-5.82,2.46l1.1.17v.16a6.21,6.21,0,0,0-.77.21,20.47,20.47,0,0,0-2.88,1.35,1.87,1.87,0,0,0-.6,2.57,8,8,0,0,0,.94,1.4,12,12,0,0,0,.91,1,7.86,7.86,0,0,1-1.16-.3c-.71-.18-1.42-.35-2.14-.49a.56.56,0,0,0-.49.18c-.07.11,0,.36.11.51a1.53,1.53,0,0,0,.4.48l2.8,2.32.47.41-.09.25Zm-8.82,9.65c.78-.75,1.57-1.49,2.33-2.26a.79.79,0,0,0,.12-.47c.12-2.19.23-4.39.35-6.58,0-.15,0-.31,0-.53l-1.7.95a3.23,3.23,0,0,1,.11-.48c.74-1.36,1.45-2.74,2.24-4.07.5-.82,1.15-1.55,1.7-2.34a1,1,0,0,0-.39-1.74,3.19,3.19,0,0,1-.41-.35,42.33,42.33,0,0,0-15.25,12C12.92,29.22,8.3,39.07,8.58,42c.18-.27.34-.49.48-.72a3,3,0,0,1,2.44-1.45,8.65,8.65,0,0,0,.88,0c.16,0,.41-.11.44-.23.38-1.14.73-2.3,1.09-3.48L13.52,36l-.3-.11a2.28,2.28,0,0,1,.19-.3c.1-.13.21-.26.32-.38a5.87,5.87,0,0,1,4.16-1.65c1.33-.13,1.34-.12,1.26-1.47,0-.2-.22-.38-.36-.62,1.25-2,3.37-2.41,5.63-2.63a3.12,3.12,0,0,1,3,1.3A.87.87,0,0,0,27.66,30.25ZM17.35,57.6l-.16.16,1.1,2H18a8.11,8.11,0,0,1-3.62-1.33A14.23,14.23,0,0,0,12.11,57c-1.57-.59-3.23-.94-4.36-2.38a18.46,18.46,0,0,0,.19,2.16,42.1,42.1,0,0,0,5.93,16.44.63.63,0,0,0,.86.33q3-.84,6.07-1.61a.66.66,0,0,0,.59-.77c0-3.17.1-6.34,0-9.5a18.1,18.1,0,0,0-.8-3.45A3.78,3.78,0,0,1,17.35,57.6Zm41.15-11v9.69c-1.3,0-1.3,0-1.3-1.18,0-2.64,0-5.28,0-7.93,0-.55-.13-.77-.71-.82-2.23-.22-4.46-.48-6.69-.72a2.88,2.88,0,0,0-.39,0c0,.14,0,.24,0,.34q0,15.2,0,30.41c0,.42.18.55.54.58l2.19.24,5.09.55V66.59l1.33.17v.78c0,3.25,0,6.51,0,9.76,0,.56.2.72.7.77,2.11.2,4.21.44,6.32.66.8.09.81.09.81-.74q0-14.35,0-28.71c0-.58.15-1.33-.15-1.69s-1.05-.23-1.61-.29C62.59,47.07,60.61,46.86,58.5,46.63ZM81.71,68.22a22.3,22.3,0,0,1,2,8.47c4.25-3.46,9.86-19.46,8.77-25.09-.11.35-.19.55-.25.76a5.28,5.28,0,0,1-3.74,3.83c-.34.11-.68.19-1,.32a2.81,2.81,0,0,0-.6.3c-1.28.84-2.56,1.68-3.82,2.54a.73.73,0,0,0-.29.57c.18,2,.42,4,.57,5.94.08.92,0,1.86,0,2.82ZM67.11,69.6c0,.62,0,1.14,0,1.66a32.84,32.84,0,0,0,1.64,10.27,10.32,10.32,0,0,0,6,6.44A4.66,4.66,0,0,0,81,86a8,8,0,0,0,.75-1.59,20.49,20.49,0,0,0,1-8.19,18.66,18.66,0,0,0-2.76-9.24,2.76,2.76,0,0,1-.14-.34l2.65.82c0-1-.09-2-.15-2.92a24.29,24.29,0,0,0-1.55-8A9.74,9.74,0,0,0,76,51.19c-3.53-1.73-6.42-.57-7.56,3.19a19.4,19.4,0,0,0,.83,13.42c.41,1,1,1.88,1.55,2.92Zm-34.74,11c.16,0,.21,0,.25,0,2.35-1,4.71-2,7.05-3a.78.78,0,0,0,.34-.62c0-1.24,0-2.48,0-3.72a4.07,4.07,0,0,1,0-.49h.11l1.19,4.12c2.56-1.09,5-2.15,7.5-3.19.36-.15.31-.37.23-.65-.45-1.62-.88-3.24-1.34-4.86a26,26,0,0,0-2.14-6.23.63.63,0,0,1,.06-.51,15.14,15.14,0,0,0,2.06-6.93A14.88,14.88,0,0,0,47,47.74a3.91,3.91,0,0,0-1.88-2.29,7.23,7.23,0,0,0-5.49-.56c-2.2.76-4.39,1.56-6.6,2.31a.82.82,0,0,0-.65.94q0,15.87,0,31.73ZM30.52,50l-.89.4c-2.16,1-4.32,2-6.51,3a1.15,1.15,0,0,0-.79,1.27c0,5.75,0,11.5,0,17.25a.66.66,0,0,1-.59.77c-2.17.55-4.33,1.15-6.51,1.71-.4.1-.56.26-.52.68.12,1.5.16,3,.36,4.51a12.93,12.93,0,0,0,2.11,5.93,6.73,6.73,0,0,0,9.53,1.37,9.25,9.25,0,0,0,2.75-4.22,25,25,0,0,0,1-8.14c.05-7.92,0-15.83,0-23.74ZM59.94,38.33c-.55-.81-1.07-1.62-1.64-2.4-.14-.19-.45-.26-.68-.38a2.71,2.71,0,0,0-.17.68c0,1.57,0,3.14,0,4.71a8.53,8.53,0,0,1-.36,1.63c-2.28-1.66-3.54-.47-4.52,1.56L50.8,42.22a3.91,3.91,0,0,1-2.47,2.07c-.15-.46-.26-.86-.41-1.25-.38-1-.86-1.1-1.61-.35-.35.35-.68.73-1.06,1.14l-1.1-2a5.16,5.16,0,0,1-.58.4c-.73.39-1.19.16-1.27-.64l-.54-5.26c0-.3-.06-.59-.08-.84l-3,1.22.94,3.09-.2.14-2.24-.56a9.84,9.84,0,0,0,.77,1.56,1.41,1.41,0,0,0,.89.35c.19,0,.41-.16.69-.29.22.33.46.64.66,1a10.84,10.84,0,0,1,.61,1.17,1,1,0,0,0,.93.59,20.2,20.2,0,0,1,2.29.37,5.07,5.07,0,0,1,3.82,3.31c.19.48.35,1,.52,1.45h.15v-4.2l4.53.5,4.36.47a14.94,14.94,0,0,1,.6-1.73c.29-.57.7-1.09,1-1.65.09-.16.17-.43.09-.56a2.24,2.24,0,0,1,.27-2.53C59.53,38.85,59.73,38.61,59.94,38.33ZM30.57,32.45a7.19,7.19,0,0,1,3.27,2,5.77,5.77,0,0,0-1.36-.38,4.7,4.7,0,0,0-1.62.26c-.18.06-.31.53-.28.79s.41.37.63.35a3.25,3.25,0,0,1,2.55,1.38c-.47.06-.86.1-1.24.18-.62.13-.72.33-.5.93a17.7,17.7,0,0,1,.73,2c.42,1.68,1.34,2.26,3,1.8.23-.07.44-.15.66-.23.65-.26.77-.74.2-1.16A6.94,6.94,0,0,0,35,39.58c-.4-.17-.85-.24-1.24-.43-.21-.11-.51-.44-.46-.57a1.13,1.13,0,0,1,.6-.53,1.43,1.43,0,0,1,.74-.09,17.35,17.35,0,0,1,2.15.41c.65.19,1.27.5,2,.77-.66-2.14-2.56-2.65-4.24-3.43l4.55.23-.61-2.42a6.09,6.09,0,0,1-2.71,1c-.14-.59-.24-1.12-.39-1.64s-.36-1-.55-1.51l-2.07,1.14-1-2.36A4.37,4.37,0,0,0,30.57,32.45Zm46.36,1.27c-.33-.93-.54-1.7-.87-2.41a1.1,1.1,0,0,0-1.81-.49A4.6,4.6,0,0,0,73.05,32c-1.12,1.62-2.19,3.27-3.27,4.92a5.75,5.75,0,0,0-1.15,3.71,3.94,3.94,0,0,0,.81,2.13c.25-.6.44-1.07.65-1.52a9.48,9.48,0,0,1,.66-1.36,7.34,7.34,0,0,1,1.19-1.51,2.64,2.64,0,0,1,2.69-.06c.7.5.56,1.24.45,2-.07.4-.16.79-.24,1.18a4.15,4.15,0,0,0,.82-1.11c1.08-2.09.35-3.36-2-3.53-.24,0-.47-.07-.71-.1l-.08-.19C74,35.27,74.63,33.54,76.93,33.72ZM34,6.18c-.11.82-.24,1.51-.28,2.21a10.24,10.24,0,0,0,.75,5.35c.07.13-.06.42-.17.58-.81,1.12-1.64,2.23-2.44,3.35a5.53,5.53,0,0,0-.36.77c.78-.17,1.63-.1,2.09-.49a19.88,19.88,0,0,0,3-3.31,5.77,5.77,0,0,1,1.14-1.32l2.56-1.94a3.44,3.44,0,0,0,.66-.66c.12-.16.23-.54.16-.59a1.22,1.22,0,0,0-.73-.25c-.13,0-.32.25-.36.41-.13.58-.48.71-1,.67-.89-.06-1.42-.68-2.17-1.3.74.09,1.29.2,1.84.22a2.37,2.37,0,0,0,.75-.22A3.46,3.46,0,0,0,39.06,9a3.54,3.54,0,0,0-.73-.48L35.05,6.69C34.76,6.53,34.46,6.4,34,6.18ZM24.78,41.76a6.89,6.89,0,0,1-.14-.91,7.3,7.3,0,0,1,0-1.62,1.19,1.19,0,0,1,1.72-1,3.3,3.3,0,0,1,.69.31,6,6,0,0,1,2.81,3.85c0,.15.1.29.16.47a1.62,1.62,0,0,0,1.07-1.68,7,7,0,0,0-.64-2.58c-1.22-2.17-2.58-4.26-3.91-6.37a2.86,2.86,0,0,0-.86-.8,1.19,1.19,0,0,0-1.61.14,4.71,4.71,0,0,0-1.22,2.13c1.84.37,2.45,2,3.69,3.18l-.95.08A1.7,1.7,0,0,0,24,38.11,4.15,4.15,0,0,0,24.78,41.76Zm0,4.34a2.35,2.35,0,0,0,.13-2.48,6.51,6.51,0,0,0-1.4-1.76c-1.15-.94-1.86-2.27-3.05-3.18A3.46,3.46,0,0,1,19.59,37c-.17-.49-.42-.6-.84-.39-.83.4-1.66.79-2.46,1.24a.61.61,0,0,0-.13.6A27.13,27.13,0,0,0,17.48,41a1.2,1.2,0,0,0,.71.46,7.39,7.39,0,0,1,2.75,1.34,6.63,6.63,0,0,0-1.41.22c-.37.15-.87.41-1,.74s.15.85.25,1.28c1-1.45,1.67-1.72,3.08-1a12.13,12.13,0,0,1,1.78,1.17C24.05,45.44,24.39,45.78,24.75,46.1Zm55.9-1.7.67-1.17c-.33-.18-.65-.37-1-.53a.93.93,0,0,0-.37-.06,8.67,8.67,0,0,1-1.25-.11c-.21-.05-.38-.28-.57-.42.17-.17.31-.42.51-.48.62-.18,1.26-.31,1.89-.43a2.69,2.69,0,0,0,2-1.29c.25-.44.49-.88.72-1.33.33-.62.27-.93-.32-1.33s-1-.58-1.45-.87c-.89-.55-.91-.52-1.35.42-.35.76-.59,1.65-1.63,1.82-.12,0-.21.19-.3.31-.92,1.08-1.8,2.2-2.75,3.26A3.16,3.16,0,0,0,75,45.6a6,6,0,0,1,.6-.46,29.73,29.73,0,0,1,3.16-1.78C79.78,42.89,80.16,43.15,80.65,44.4ZM48.45,77.77V74.85l-7.83,3.33c3.46,1.85,14,2.22,16.75.58L53,78.28Zm18.15-38a5.63,5.63,0,0,1-1.66.76,5.8,5.8,0,0,1-1.81-.35c.68-.59,1.3-1.07,1.85-1.63s1.13-1.34,1.71-2a2.93,2.93,0,0,1,.65-.43l-.21-.22c-1.73.22-2.63,1.81-4.06,2.55.71-.95,1.47-1.84,2.24-2.72.43-.48.92-.93,1.3-1.45a1.08,1.08,0,0,0,.15-.91,1,1,0,0,0-.83-.41,3,3,0,0,0-1.26.55c-.56.43-.72.44-1-.2s-.57-.67-.91-.17c-.93,1.32-1.76,2.7-2.63,4.06l.18.18,4.08-2.23.11.18c-.82.89-1.65,1.77-2.46,2.67s-1.56,1.81-2.38,2.77c1.42.11,2.67.24,3.93.27a8.84,8.84,0,0,0,2.11-.21A1,1,0,0,0,66.6,39.75Zm6.63,4.93c-1.55,1.22-3,2.57-5.06,2.9.26-.65.49-1.18.67-1.73s.32-1.14.48-1.71L69.15,44c-.78.28-1.57.53-2.32.88a1.68,1.68,0,0,0-.69.77c-.32.65-.17.92.55,1,.41,0,.6.18.56.62s0,.88,0,1.32c0,.67.42,1,.87,1.5,0-1.07.26-1.49.83-1.54s1,.38,1.31,1.72a5.53,5.53,0,0,1,3.57-.73.41.41,0,0,0,.34-.2,15.51,15.51,0,0,0,.74-1.73.87.87,0,0,0-.46-1.09,4.44,4.44,0,0,1-1-1.16A2.53,2.53,0,0,1,73.23,44.68Zm-7.82,1.78c.11-2.06,1.79-2.45,3.35-3.12l-1.34-1.81c-.09.12-.14.16-.15.21-.51,1.38-.78,1.47-2.14.91a21.22,21.22,0,0,0-2.91-1,2,2,0,0,0-1.4.09,6,6,0,0,0-2.62,3.47c-.1.3,0,.45.37.51,1,.16,1,.17,1.45-.79a3.54,3.54,0,0,1,.16-.34,1.38,1.38,0,0,1,2.39-.37,11.84,11.84,0,0,1,1.12,1.64c.12.17.26.4.43.44A9.93,9.93,0,0,0,65.41,46.46ZM19.48,48.91a4.11,4.11,0,0,0-1.14-2.61,25.88,25.88,0,0,0-2.54-2.69,9.68,9.68,0,0,0-2.36-1.36,1.12,1.12,0,0,0-1.43.49,2,2,0,0,0,1.12,2.85c.61.16,1.2.35,1.94.56-1.69.78-2.05,2.36-.94,3.64,0-.38.08-.73.15-1.07a1.49,1.49,0,0,1,1.87-1.31,6.08,6.08,0,0,1,1.37.44C18.14,48.14,18.73,48.5,19.48,48.91ZM49.24,37.15l.68-.83.52.67.59-.36.59.64c.25-.74.45-1.4.7-2,.31-.81.46-.84,1.09-.25,0,0,.07,0,.14,0A1.53,1.53,0,0,0,53,33.52a6.31,6.31,0,0,1-.76-.7c-.56-.68-1.07-.68-1.52.09a18.21,18.21,0,0,0-.79,1.65c-.17-.25-.29-.46-.44-.65a12.66,12.66,0,0,0-1.18-1.45c-.54-.52-1.13-.46-1.46.19A23,23,0,0,0,46,35l.19.08.63-.57,1.15,2.62.91-.67ZM44.72,26l.1.21a1.68,1.68,0,0,1-.55.25c-.71,0-1.42,0-2.14,0-.42,0-.54.17-.48.58s.21.56.65.54c.91,0,1.82,0,2.73,0l.09.14a2.38,2.38,0,0,1-.61.32c-.51.09-1,.1-1.55.19-.13,0-.35.22-.34.31a.62.62,0,0,0,.32.4,8.8,8.8,0,0,0,5,.52.77.77,0,0,0,.54-1.29,8.23,8.23,0,0,0-3.25-2.89A1.87,1.87,0,0,1,44,23.87c-.08-.5-.37-.53-.71-.37a5.7,5.7,0,0,0-.82.62l.33.17c.27.16.76,0,.81.5a6.28,6.28,0,0,1-1,0c-1-.15-1.07-.06-1.2,1Zm41,23.52a2.33,2.33,0,0,0-1.49-3.3c-.12,0-.33-.18-.32-.23s.14-.35.26-.37a6.09,6.09,0,0,1,1.4-.22,2.58,2.58,0,0,0,1.88-.55,1.53,1.53,0,0,0,.53-1.69,1.5,1.5,0,0,0-1.42-1,2.93,2.93,0,0,0-2.85,1.2c-.81,1.06-1.75,2-2.61,3a7.32,7.32,0,0,0-.72,1,3.42,3.42,0,0,0-.19.73c.3-.13.46-.21.63-.27a22,22,0,0,1,2.69-.84,1.67,1.67,0,0,1,2,1.48C85.56,48.82,85.59,49.08,85.67,49.51Zm-59.1-4.18c-.53.58-1,1.12-1.51,1.67a.34.34,0,0,0-.07.28,8.64,8.64,0,0,0,1.32,3.6c1.66-.77,3.29-1.52,4.9-2.29a.5.5,0,0,0,.21-.45c0-.13-.24-.26-.4-.3A9.56,9.56,0,0,1,26.57,45.33Zm-3.39,2.45a3.89,3.89,0,0,1-1.27-2.5.76.76,0,0,0-.38-.59c-.49-.14-1.16-.4-1.51-.19-.57.34-.17,1-.07,1.57a1,1,0,0,0,.1.29c.81,1.22,1.58,2.48,2.45,3.65a3.6,3.6,0,0,0,2.37,1.31,2.5,2.5,0,0,0,.63-.06c-.53-1.61-1-3.12-1.53-4.62a2.38,2.38,0,0,0-.51-.79,1.24,1.24,0,0,0-.46-.23,1.35,1.35,0,0,0-.12.51C23,46.68,23.08,47.23,23.18,47.78Zm7.88-4c.2.09.34.17.49.23a4.9,4.9,0,0,1,2.52,1.58.42.42,0,0,0,.37.12c.85-.35,1.83-.43,2.49-1.24a1.36,1.36,0,0,1,1.56-.56c.7.3,1.19-.11,1.81-.21-.12-.26-.21-.45-.29-.64-.56-1.3-.75-1.39-2.15-1-1.11.31-2.2.72-3.33.93-1.65.3-2,.13-2.39-1.33ZM19.73,55.34l.15-.16a1.55,1.55,0,0,0-.05-.23,9.59,9.59,0,0,1-1-5.05c0-.41-.1-.75-.55-.74s-.49.41-.45.79.07,1,.1,1.43A3.35,3.35,0,0,1,17,48.87c0-.13,0-.38-.06-.39a4,4,0,0,0-1.6-.24c-.54.12-.55.71-.39,1.22a9.4,9.4,0,0,0,2.73,4.43A22.45,22.45,0,0,0,19.73,55.34Zm56.94-7.6-.32-.11.5-2.18c-.63.16-1.12.38-1.26.94-.27,1.08-.46,2.19-.71,3.46.5,0,1.18.34,1.58.12a6.76,6.76,0,0,0,3.31-4.25,2.33,2.33,0,0,0,0-1,.76.76,0,0,0-1.29-.47,4.37,4.37,0,0,0-.89,1.33C77.27,46.25,77,47,76.67,47.74Zm-48.22-4a4.3,4.3,0,0,1-.29-.45c-.6-1.27-1.17-2.55-1.8-3.8-.12-.24-.43-.39-.65-.57-.19.24-.39.48-.56.73a.64.64,0,0,0,0,.31,8.74,8.74,0,0,0,4.35,6.64,3.25,3.25,0,0,0,.51.17l-1.34-5.82-.25,0A7.08,7.08,0,0,0,28.45,43.72Zm53,5h-.33c-.11.47-.25.94-.32,1.43-.16,1-.3,2.11-.4,3.18a4.86,4.86,0,0,0,.16,1.09,8.36,8.36,0,0,0,4.1-4.89,1.28,1.28,0,0,0-.92-1.5c-.62-.14-1,.16-1.1.95a2.65,2.65,0,0,1-.09.49c-.2.52-.42,1-.64,1.55l-.15-.07ZM50.12,26.75c1-.82,2-1.63,3-2.45a1.62,1.62,0,0,0,.28-.46c-.18-.09-.35-.27-.52-.26a5.34,5.34,0,0,0-1.55.14,8.63,8.63,0,0,1-3.61.14c-.76-.09-1.52-.29-2.28-.39a.71.71,0,0,0-.58.21c-.07.1,0,.4.15.55a.75.75,0,0,0,.44.32,5.6,5.6,0,0,1,2.48,1.65c.18.19.38.36.62.6.14-.37.22-.65.34-.91s.27-.48.41-.72h.22ZM16.39,55.84a1.41,1.41,0,0,0,.17-1.61c-.58-1-1.28-1.9-1.95-2.83a.52.52,0,0,0-.33-.13,4.5,4.5,0,0,1-3.5-2.67c-.42-.76-.41-.78-1.23-.46a2.38,2.38,0,0,0-.45.23.7.7,0,0,0-.2,1.16,3.27,3.27,0,0,0,.69.65c.47.33,1,.61,1.48.92a2.76,2.76,0,0,0,.24,4.13c-.11-.76-.27-1.54-.32-2.32a1.16,1.16,0,0,1,.79-1.3c1.23-.39,3.94,1.32,4.16,2.61.05.33.12.66.2,1S16.29,55.58,16.39,55.84Zm55.08-15.2-.2-.08-1.73,5.68a2.75,2.75,0,0,0,.31-.05l.83-.44a7.42,7.42,0,0,0,3.82-5.81c0-.43-.16-1.19-.44-1.3-.51-.19-.67.48-.86.88-.49,1.06-.94,2.14-1.43,3.21a11.94,11.94,0,0,1-.64,1.09L71,43.76ZM68.11,28.25a13.76,13.76,0,0,1-.06,4.15l-1.56-2a2.33,2.33,0,0,0-.23.44,1.49,1.49,0,0,0,.41,1.41c.72.77,1.33,1.64,2,2.52l2.64-3.62-2.59-2.41C68.58,28.59,68.41,28.48,68.11,28.25ZM83,55.43l.2,0c.32-.79.61-1.58.94-2.36A2.84,2.84,0,0,1,86,51.41c1.37-.37,3-.1,2.59,2.08-.09.46-.15.92-.23,1.44.88-.49,1-.91,1.08-2.82,0-.61-.45-.8-.85-1-.08-.06-.15-.13-.37-.33.66-.34,1.2-.65,1.78-.9a1.23,1.23,0,0,0,.75-1.31,1,1,0,0,0-1.06-.77,1,1,0,0,0-1,.71c-.49,1.18-1.16,2.31-2.54,2.46a2.27,2.27,0,0,0-1.89,1.38,18.69,18.69,0,0,0-.92,1.78A8.6,8.6,0,0,0,83,55.43ZM83.63,58a6.13,6.13,0,0,0,4.26-4.79c.17-.9.07-1-.84-1-.51,0-.8.11-.79.74A6.9,6.9,0,0,1,86,54.61a3.51,3.51,0,0,1-.44.83l-.17-.07c0-.43.09-.85.08-1.28a3.89,3.89,0,0,0-.22-.86l-.77.65c-.06,0-.07.15-.09.23C84.13,55.41,83.87,56.71,83.63,58ZM14.25,55.71l-.18,0a5.45,5.45,0,0,1-.35-.79c-.17-.69-.32-1.39-.45-2.08s-.62-.42-1-.46-.41.23-.41.53a6.08,6.08,0,0,0,4.44,5.43,10.11,10.11,0,0,1-1-3.93.64.64,0,0,0-.17-.46,1.38,1.38,0,0,0-.65-.26c-.05,0-.2.31-.21.49C14.23,54.72,14.25,55.22,14.25,55.71ZM64.08,12a8.77,8.77,0,0,0,.85-3.81,5.45,5.45,0,0,0-.53-2c-.29-.62-.58-.6-1-.1-.26.3-.53.6-.78.9L61.14,8.78l1.74-.42c-.12.66,0,1,.7,1C62.53,10.24,62.69,11.07,64.08,12ZM20.85,49.45c-.08.75-.21,1.38-1,1.72a.62.62,0,0,0-.15.53c.17.78.38,1.54.58,2.31.14.54.51.72,1.09.68a4.3,4.3,0,0,0,0-.79.89.89,0,0,1,.67-1.09c.69-.26,1.34-.61,2-.93A6,6,0,0,1,20.85,49.45Zm27.58,7.61c-.11.21-.15.27-.18.34-.5,1.35-1,2.7-1.51,4.05a1.2,1.2,0,0,0,0,.7c.4,1.15.83,2.28,1.24,3.42.12.35.2.7.3,1.05l.12,0Zm4.48-24.38c.26-.72.51-1.35.71-2,.14-.47,0-.63-.57-.64a7,7,0,0,1-2.56-.35,1.53,1.53,0,0,0-1.59,0c-.18.11-.37.19-.56.29-.76.37-.78.48-.22,1.18l.71-.5.26.22.27.21c.66-.52.65-.51,1.3,0a.52.52,0,0,0,.44,0,4.67,4.67,0,0,0,.67-.39Zm5.45-7.44c1.23,0,2.38,0,3.52,0,.16,0,.41-.13.44-.25.17-.52.26-1.05.41-1.67l-4.59.6ZM40.68,24.5H37.56c.14,1.49.39,1.71,1.79,1.61l.19,0c1.27-.09,1.31-.13,1.21-1.44A1,1,0,0,0,40.68,24.5Zm-9.52,23,.28,0c-.11-.61.26-.78.72-.91s.86-.31,1.28-.47a3,3,0,0,0-3.14-1.54Zm46.07,3.23,2.39,2a5.47,5.47,0,0,0,.21-1.84,8.12,8.12,0,0,0-1-1.84ZM17.38,54.55l-.14.09c0,.51.06,1,.12,1.54a.51.51,0,0,0,.3.34c1.07.23,2.16.44,3.25.62.15,0,.34-.18.52-.28-.14-.16-.25-.43-.43-.47A6.44,6.44,0,0,1,17.38,54.55ZM61.72,26.2H58.45l-.25,1.4H60C61.15,27.6,61.39,27.4,61.72,26.2Zm5.72,23.69-.19.12c0,.43,0,.87,0,1.31s.2.67.62.85.57-.14.78-.39.52-.55.73-.86a2.05,2.05,0,0,0,.37-.88c0-.21-.28-.43-.43-.64-.17.19-.42.35-.52.57a5.16,5.16,0,0,0-.2,1l-.28.13ZM47.16,30.6c-.72,0-1.26,0-1.8,0-.13,0-.36.14-.36.23a4.49,4.49,0,0,0,.51,2.52Zm-2.46-14a2.25,2.25,0,0,0-2.74-.9C42.41,17.12,43.66,17.55,44.7,16.61ZM9,42.14c-.25.22-.58.36-.62.55-.25,1.32-.44,2.65-.65,4l.25.12c.16-.23.44-.43.48-.68C8.61,44.85,8.76,43.57,9,42.14ZM28.31,31.63l.12.16a2.63,2.63,0,0,0,.41-.21c1-.72,1.94-1.45,2.89-2.19.36-.28.19-.58-.13-.95Zm8.37-5.49.1-.16-.69-1.24c-.33-.63-.58-.73-1.31-.51,0,.39,0,.79.11,1.18,0,.14.27.37.3.35.44-.23.72-.09,1,.3C36.24,26.16,36.5,26.12,36.68,26.14Zm32,42.93-1.34-3.52a22.52,22.52,0,0,0-.09,2.84.45.45,0,0,0,.23.32C67.86,68.85,68.24,68.94,68.69,69.07ZM46.84,35.9l-.22,0c-.24.59-.51,1.16-.69,1.77,0,.1.35.42.57.46s.6-.19.59-.28A17.87,17.87,0,0,0,46.84,35.9Zm15.9-8.39c1,.14,1.43-.3,1.5-1.47C63.22,25.82,62.93,26.11,62.74,27.51Zm-24.47.74c-.88-1.41-1.15-1.49-1.87-1.11C37.32,28.74,37.32,28.63,38.27,28.25Zm25.5-3c.57.16.86,0,.92-.56a6.94,6.94,0,0,0,.1-1.11c0-.14-.19-.28-.3-.42-.14.12-.37.21-.4.35C64,24.09,63.87,24.67,63.77,25.27ZM39.05,26.93c.27,1,.56,1.15,1.86.72C40.6,26.6,40.58,26.59,39.05,26.93Zm14.09,8.9-.25,0L52.18,38c.54.3,1.06.14,1.08-.37A17.15,17.15,0,0,0,53.14,35.83ZM60.3,45.88c.49,0,1,.42,1.21-.15.1-.25-.13-.91-.28-.93C60.55,44.7,60.54,45.34,60.3,45.88ZM50.35,38,50,37.29l-.25.1c0,.32,0,.87.07.9a5.22,5.22,0,0,0,1.26.07l-.14-1.09ZM82.13,54.38l-1,.69.46.93C82.38,55.64,82.06,55,82.13,54.38ZM62.06,45.84l.1.25.86.09.12-.16c-.15-.2-.28-.52-.47-.55S62.27,45.7,62.06,45.84ZM48.72,37.16l-.67.92.93.18Z" transform="translate(4.67 2.76)"/><path d="M71.77,87.41a42.59,42.59,0,0,1-43.95-.29,10.85,10.85,0,0,0,2.64-4.69c.43-1.69.66-3.43,1-5.18v4.81l1.84-.76c1.61-.68,3.2-1.38,4.81-2a1.5,1.5,0,0,1,1,0,30.58,30.58,0,0,0,21.55.12,2.44,2.44,0,0,1,1-.12c1.58.15,3.16.36,4.75.5a1,1,0,0,1,1.06.88A12.11,12.11,0,0,0,71,86.74l.32.3Z" transform="translate(4.67 2.76)"/><path d="M64.91,27.19c.43-1.19.43-1.19,1.18-1.32l-.56-.69-.13.08c0-.4,0-.79.07-1.19.09-1.13.09-1.13,1.23-1.14h.58c.12-.39,0-.6-.37-.58h-.63c-.86,0-.86,0-1.3-.82a3.4,3.4,0,0,1-.15.74,1.58,1.58,0,0,1-.37.41,2.15,2.15,0,0,1-.31-.38c-.26-.75-.5-1.51-.77-2.3A2.23,2.23,0,0,0,63,17.33a.73.73,0,0,1-.32-.51,5.07,5.07,0,0,0-2.35-4.16c-.68-.5-1.38-1-2.07-1.45-.17-.11-.4-.21-.48-.38a2.55,2.55,0,0,1-.11-.74c.23,0,.5-.07.68,0,.46.22.87.52,1.34.73a6,6,0,0,0-4.3-3.26c-1.67-.34-3.39-.46-5.1-.67a8.39,8.39,0,0,0-.87,0v-1l3.6-.3a8.75,8.75,0,0,0-9.88,1c.66-.12,1.17-.23,1.69-.31s1.33-.22,2-.28c.85-.07,1,.08.89.89L40.19,9.42l-1.73-2.2c.53-.17,1.09-.31,1.62-.53a26,26,0,0,0,3.33-1.46C47.12,3,51,3,54.9,4.41a11.69,11.69,0,0,1,2.34,1.13l-1,.28a7.3,7.3,0,0,0,5.31-.35c-.33.7-.57,1.29-.87,1.84s-.7,1.1-1.12,1.76a19.16,19.16,0,0,0,1.33,1.4c1.62,1.39,3.3,2.73,4.9,4.14a15,15,0,0,1,1.7,1.93,5.22,5.22,0,0,1,.45,1H66.19c1,2.44,2.39,4.69,2.16,7.51l-1.9-1.25L67.31,29a8.93,8.93,0,0,1-1.1-.34c-.47-.2-.66-.08-.76.44-.19,1-.47,1.91-.72,2.86-.06.22-.18.42-.33.8-.19-.36-.29-.59-.42-.81-.29-.52-.62-.63-1.07-.25a7.56,7.56,0,0,0-1.29,1.36c-.68.93-1.28,1.91-2,3-.34-.28-.67-.55-1-.8a14.08,14.08,0,0,0-1.29-.89c-.4-.23-.68,0-.69.39a14.08,14.08,0,0,0,.07,1.45c.1,1.5.21,3,.29,4.51a5,5,0,0,1-.07.84,7.16,7.16,0,0,0-2.52-.3c-.72.18-1.29.94-2,1.51-.26-.3-.64-.71-1-1.13s-.6-.42-1,0c-.51.66-1.09,1.26-1.76,2-.14-.43-.26-.73-.35-1-.37-1.25-1.15-1.44-2.06-.52-.22.23-.42.46-.73.8-.18-.44-.33-.81-.47-1.18-.48-1.21-.83-1.28-1.69-.35a2.82,2.82,0,0,0-.24.36L43,41.67c-.09-1.28-.21-2.57-.27-3.85,0-.84.06-1.68,0-2.52,0-.38-.14-.95-.39-1.08s-.75.15-1.13.29a3.11,3.11,0,0,0-.53.36l-.44-1.27c-.51-1.46-1.26-1.75-2.6-1l-.77.46-.48-1c-.26-.52-.49-1.07-.79-1.57-.5-.85-1-.88-1.62-.17-.1.11-.19.22-.36.39A6.12,6.12,0,0,1,33,28.2c-.1-.86-.18-1.72-.29-2.69l-.81.43c.07-1.23.1-2.39.19-3.55a9.3,9.3,0,0,1,.29-2.05,4.76,4.76,0,0,1,.88-1.48c.27-.35.6-.22.78.18a1,1,0,0,1,.09.3,7.87,7.87,0,0,0,1.3,3.79c-.45.07-.78.15-1.11.17s-.49-.12-.5-.48c0-.67-.06-1.34-.12-2,0-.24-.09-.48-.13-.72l-.23,0A7.42,7.42,0,0,0,33,21.21a9.67,9.67,0,0,0,0,2,16.89,16.89,0,0,0,.43,1.66A18.06,18.06,0,0,1,33.73,27a1.77,1.77,0,0,0,.76,1.43,23,23,0,0,0,6.37,3.23,3.31,3.31,0,0,0,.63.1l.19-.25-.63-.4c-.46-.32-.94-.63-1.39-1-.26-.21-.49-.46-.73-.69a9.57,9.57,0,0,1,.89-.64,1.6,1.6,0,0,1,2.18.46,9.83,9.83,0,0,1,2.64,5.19,12.53,12.53,0,0,1,0,1.5,12.89,12.89,0,0,0,.06,1.76,1.6,1.6,0,0,0,2.09,1.5A22.47,22.47,0,0,1,49.22,39c1.17,0,2.35,0,3.52,0,1.75,0,2.43-.81,2.19-2.55a21.6,21.6,0,0,1-.4-3.18c0-2.11,1.27-3.62,2.75-5a.57.57,0,0,1,.27-.13c.87,0,1.74,0,2.61,0l.09.2-3,2.73a2.32,2.32,0,0,0,1.91-.39,11.14,11.14,0,0,0,2.16-1.88,1.57,1.57,0,0,1,1.81-.6,10.8,10.8,0,0,1-2.84,2.84C59.15,31.8,58,32.33,56.65,33a4.18,4.18,0,0,0,2.45-.1A8.56,8.56,0,0,0,64,28.77c.21-.34.38-.63.85-.6a.52.52,0,0,0,.38-.31C65.2,27.7,65.05,27.51,64.91,27.19Z" transform="translate(4.67 2.76)"/><path d="M92.3,46.71l-1.48-1.15c1.18-1.36-.14-2.35-.54-3.5l1-.28a16.57,16.57,0,0,0-1.84-2A2.88,2.88,0,0,0,88,39.54c-1.24-.1-1.24-.08-1.6-1.28-.17-.56-.36-1.12-.51-1.69-.08-.29-.37-.62.09-.87,0,0,0-.08,0-.12a3.38,3.38,0,0,0-2-2.28c-.64-.06-1.3,0-1.94-.11-1.32-.15-1.62-.43-2-1.84l.9-.18a6.53,6.53,0,0,0-3.64-2.28,10.67,10.67,0,0,0-4.06-.14,1,1,0,0,0-.54.37,7.94,7.94,0,0,0-.61.82c-.88-.81-1.71-1.56-2.54-2.34a.43.43,0,0,1-.11-.33c.45-2.44-.34-4.69-1.07-6.95L68,19.08s0-.08,0-.1l1.47.62.17-.12c-.1-.43-.17-.88-.31-1.29a14.67,14.67,0,0,0-3-4.57A5.14,5.14,0,0,0,66,13.2a.67.67,0,0,1-.1-1c.28-.36.54-.56,1.06-.32,13.74,6.4,22.11,17,25,31.91.16.84.24,1.7.36,2.55C92.31,46.4,92.3,46.5,92.3,46.71Z" transform="translate(4.67 2.76)"/><path d="M36.48,20.6l3.79.5.09-.25-.47-.41-2.8-2.32a1.53,1.53,0,0,1-.4-.48c-.09-.15-.18-.4-.11-.51a.56.56,0,0,1,.49-.18c.72.14,1.43.31,2.14.49a7.86,7.86,0,0,0,1.16.3,12,12,0,0,1-.91-1,8,8,0,0,1-.94-1.4,1.87,1.87,0,0,1,.6-2.57A20.47,20.47,0,0,1,42,11.44a6.21,6.21,0,0,1,.77-.21v-.16l-1.1-.17c1.8-1.34,3.4-2.83,5.82-2.46a2.52,2.52,0,0,1,.54.14c.62.22.71.57.22,1s-1,.75-1.45,1.19a6.23,6.23,0,0,0-.7,1.1l.17.16c.42-.2.83-.42,1.27-.58a1.6,1.6,0,0,1,.58,0A2.59,2.59,0,0,1,48,12c-.29.59-.6,1.16-.91,1.74l.22.17,1-.77A1.6,1.6,0,0,1,47.46,15a9.09,9.09,0,0,1,.11,1.17c0,.71-.4.94-1,.61a1.78,1.78,0,0,1-.66-.46,4.35,4.35,0,0,0-3.57-1.68,13.83,13.83,0,0,0-1.82,0c-.19,0-.37.2-.55.31.11.16.21.33.33.48.31.38.61.75.94,1.11s.9,1,1.41,1.51l-.34.57,1.3.35c1.09.33,1.21.66.75,1.67a2.41,2.41,0,0,0-.23,1.84l.21.11a7,7,0,0,0,.78-1c.3-.62.63-1,1.36-.64.13.07.34-.05.51-.08a2.86,2.86,0,0,0-.2-.48c0-.09-.17-.13-.21-.22s-.17-.44-.26-.66a5.1,5.1,0,0,1,.63-.2,7.38,7.38,0,0,1,.81-.07l0-.2c-.19-.1-.37-.21-.56-.3-.4-.21-.49-.52-.14-.79a4.16,4.16,0,0,0,1.48-2.47l.44.87.17,0a3.07,3.07,0,0,0,.22-.62c0-.33,0-.67.06-1s.14-.72.66-.72c.11,0,.35-.3.32-.42-.11-.55,0-.77.61-.58a2.77,2.77,0,0,0,.65,0L50.56,11.5l.09-.21,1.81-.11a2.74,2.74,0,0,0-1.67-1.53c-.56-.22-.66-.55-.61-1.14,1.77,0,3.53-.11,5.18.7a1.9,1.9,0,0,1,1.06,1.33,1.11,1.11,0,0,0,.43.54,25.83,25.83,0,0,1,2.36,1.76c1.26,1.21,1.09,2.38-.41,3.27-1,.57-1.95,1.07-2.92,1.62a2.11,2.11,0,0,0-1.23,1.35l.67-.26c1.23-.53,2.45-1.08,3.69-1.57a2.59,2.59,0,0,1,1,0,2.71,2.71,0,0,1-.39.88c-.79.84-1.62,1.63-2.44,2.44a1.8,1.8,0,0,0-.41.56c1.75-.35,3.42-.84,4.5-2.44.59,1,.34,1.41-2.12,3.41a2.79,2.79,0,0,0,2.18-.77c.29-.23.51-.77,1-.34a1.57,1.57,0,0,1,.44,1.49.8.8,0,0,1-.55.31c-1.43.18-2.87.34-4.3.5-.56.06-1.14.06-1.69.16a5.74,5.74,0,0,0-1.1.44l0,.28a9.52,9.52,0,0,0,1.31,0c.39,0,.52.08.57.44.15,1,.08,1.09-.91,1.1-.34,0-.68,0-1,0-.13,0-.24.14-.37.22.12.09.24.24.36.24.6,0,1.2,0,1.79,0,.21,1,0,1.28-.89,1.3-.55,0-1.1,0-1.64,0-.16,0-.3.18-.46.29l.1.2h1.75c-.39,1.59-3.52,1.53-5.38.72a17.66,17.66,0,0,1,2.5-3.2A4.6,4.6,0,0,0,53.86,24c.28-.79-.14-1.29-1-1.22a12.78,12.78,0,0,0-1.73.3,15.08,15.08,0,0,1-6.31,0,3.77,3.77,0,0,0-3.58.75.87.87,0,0,1-.59.12c-.86-.05-1.71-.14-2.57-.19a.67.67,0,0,1-.69-.5c-.24-.65-.53-1.28-.77-1.93A6.17,6.17,0,0,1,36.48,20.6ZM54.9,12l.1.11a10.14,10.14,0,0,1-.89.73,2.27,2.27,0,0,0-1.06,1.35,3.26,3.26,0,0,1-.32.68c-.56,1-1,1-1.68.07,0,0-.08,0-.12,0-.71,1.28.4,2,1,2.81l-1.33,1,1.47.32-.54,1.19c1.22-.12,1.24-.1,1.36,1.08a.59.59,0,0,0,.14.39c.53.4,1.09.77,1.66,1.17a1.18,1.18,0,0,0-.45-1.23,1.85,1.85,0,0,1-.52-1.9,13.76,13.76,0,0,1,.49-1.5l-.65-.34c.49-.26.89-.45,1.28-.68a4.56,4.56,0,0,0,1.44-1c.45-.66.63-1.51,1.36-2,0,0,0-.08,0-.19a15.9,15.9,0,0,0-4.12.17,3.4,3.4,0,0,1,1-.86,4.87,4.87,0,0,1,1.09-.3.62.62,0,0,0,.53-.83A1.61,1.61,0,0,0,55,10.84,2,2,0,0,0,53.26,12ZM40.63,13.65l3,.22c.53-1.29.53-1.29,1.3-1.11,0-.53-.18-1-.72-1a2.79,2.79,0,0,0-1.47.69,1,1,0,0,1-.84.35A1.08,1.08,0,0,0,40.63,13.65Z" transform="translate(4.67 2.76)"/><path d="M27.66,30.25a.87.87,0,0,1-.19-.13,3.12,3.12,0,0,0-3-1.3c-2.26.22-4.38.64-5.63,2.63.14.24.35.42.36.62.08,1.35.07,1.34-1.26,1.47a5.87,5.87,0,0,0-4.16,1.65c-.11.12-.22.25-.32.38a2.28,2.28,0,0,0-.19.3l.3.11.39.09c-.36,1.18-.71,2.34-1.09,3.48,0,.12-.28.21-.44.23a8.65,8.65,0,0,1-.88,0,3,3,0,0,0-2.44,1.45c-.14.23-.3.45-.48.72-.28-2.93,4.34-12.78,8.18-17.61A42.33,42.33,0,0,1,32,12.38a3.19,3.19,0,0,0,.41.35,1,1,0,0,1,.39,1.74c-.55.79-1.2,1.52-1.7,2.34-.79,1.33-1.5,2.71-2.24,4.07a3.23,3.23,0,0,0-.11.48l1.7-.95c0,.22,0,.38,0,.53-.12,2.19-.23,4.39-.35,6.58A.79.79,0,0,1,30,28C29.23,28.76,28.44,29.5,27.66,30.25Z" transform="translate(4.67 2.76)"/><path d="M17.35,57.6a3.78,3.78,0,0,0,3.24.63,18.1,18.1,0,0,1,.8,3.45c.1,3.16,0,6.33,0,9.5a.66.66,0,0,1-.59.77q-3,.76-6.07,1.61a.63.63,0,0,1-.86-.33A42.1,42.1,0,0,1,7.94,56.79a18.46,18.46,0,0,1-.19-2.16c1.13,1.44,2.79,1.79,4.36,2.38a14.23,14.23,0,0,1,2.24,1.38A8.11,8.11,0,0,0,18,59.72h.32l-1.1-2Z" transform="translate(4.67 2.76)"/><path d="M58.5,46.63c2.11.23,4.09.44,6.07.67.56.06,1.34,0,1.61.29s.15,1.11.15,1.69q0,14.36,0,28.71c0,.83,0,.83-.81.74-2.11-.22-4.21-.46-6.32-.66-.5,0-.7-.21-.7-.77,0-3.25,0-6.51,0-9.76v-.78l-1.33-.17V77.82l-5.09-.55L49.92,77c-.36,0-.54-.16-.54-.58q0-15.21,0-30.41c0-.1,0-.2,0-.34a2.88,2.88,0,0,1,.39,0c2.23.24,4.46.5,6.69.72.58,0,.72.27.71.82,0,2.65,0,5.29,0,7.93,0,1.16,0,1.16,1.3,1.18Zm-8.12.07c0,.25,0,.39,0,.53q0,14.18,0,28.33c0,.43.14.59.56.62,1.11.1,2.21.25,3.32.36.65.07,1.31.12,2.07.19V65.54c.9.09,1.71.22,2.52.26.56,0,.67.26.67.78,0,3.29,0,6.59,0,9.88,0,.4,0,.68.53.73,1.19.1,2.38.25,3.56.38.6.06,1.19.1,1.8.15,0-.2,0-.3,0-.41q0-14.22,0-28.45c0-.41-.16-.54-.54-.58-1.65-.16-3.3-.36-4.94-.53a2.66,2.66,0,0,0-.46,0v9.67c-.85-.1-1.6-.23-2.35-.25s-.87-.23-.86-.92c0-2.77,0-5.54,0-8.31,0-.29.07-.61-.38-.66Z" transform="translate(4.67 2.76)"/><path d="M81.71,68.22l1.59.46c0-1,.06-1.9,0-2.82-.15-2-.39-4-.57-5.94a.73.73,0,0,1,.29-.57c1.26-.86,2.54-1.7,3.82-2.54a2.81,2.81,0,0,1,.6-.3c.34-.13.68-.21,1-.32a5.28,5.28,0,0,0,3.74-3.83c.06-.21.14-.41.25-.76,1.09,5.63-4.52,21.63-8.77,25.09A22.3,22.3,0,0,0,81.71,68.22Z" transform="translate(4.67 2.76)"/><path d="M67.11,69.6l3.67,1.12c-.56-1-1.14-2-1.55-2.92a19.4,19.4,0,0,1-.83-13.42c1.14-3.76,4-4.92,7.56-3.19a9.74,9.74,0,0,1,4.76,5.3,24.29,24.29,0,0,1,1.55,8c.06.93.1,1.87.15,2.92l-2.65-.82a2.76,2.76,0,0,0,.14.34,18.66,18.66,0,0,1,2.76,9.24,20.49,20.49,0,0,1-1,8.19A8,8,0,0,1,81,86a4.66,4.66,0,0,1-6.23,2,10.32,10.32,0,0,1-6-6.44,32.84,32.84,0,0,1-1.64-10.27C67.1,70.74,67.11,70.22,67.11,69.6ZM81.29,66c0-.2,0-.3,0-.4a28.11,28.11,0,0,0-1.23-7.94,9.2,9.2,0,0,0-4.29-5.45c-3.19-1.71-5.54-.73-6.59,2.73a17.18,17.18,0,0,0-.6,5.29,17.1,17.1,0,0,0,4.74,11.93,17.63,17.63,0,0,1,2,2.4,5,5,0,0,1,.57,4c-.15.64-.5.72-.87.18a5.53,5.53,0,0,1-.86-1.8,36,36,0,0,1-.52-3.73c0-.42-.16-.64-.58-.74-.67-.17-1.33-.4-2-.6l-3-1c0,.88.07,1.65.11,2.41a27.93,27.93,0,0,0,1.64,8.24,9.15,9.15,0,0,0,4.86,5.28c2.6,1.21,4.62.45,5.81-2.17.1-.23.2-.46.28-.7a17,17,0,0,0,.93-5.43c.12-5.08-1-9.76-4.58-13.58a2.28,2.28,0,0,1-.16-.34Z" transform="translate(4.67 2.76)"/><path d="M32.37,80.58v-.71q0-15.87,0-31.73A.82.82,0,0,1,33,47.2c2.21-.75,4.4-1.55,6.6-2.31a7.23,7.23,0,0,1,5.49.56A3.91,3.91,0,0,1,47,47.74a14.88,14.88,0,0,1,.77,6.75,15.14,15.14,0,0,1-2.06,6.93.63.63,0,0,0-.06.51,26,26,0,0,1,2.14,6.23c.46,1.62.89,3.24,1.34,4.86.08.28.13.5-.23.65-2.47,1-4.94,2.1-7.5,3.19l-1.19-4.12h-.11a4.07,4.07,0,0,0,0,.49c0,1.24,0,2.48,0,3.72a.78.78,0,0,1-.34.62c-2.34,1-4.7,2-7.05,3C32.58,80.59,32.53,80.58,32.37,80.58Zm12-18.79c.37-.62.75-1.18,1-1.78a15.83,15.83,0,0,0,1.43-8.46A14,14,0,0,0,46,47.9a3.06,3.06,0,0,0-1.38-1.62,6,6,0,0,0-4.75-.45c-1.94.69-3.87,1.39-5.82,2a.8.8,0,0,0-.65.94q0,14.82,0,29.65v.73c.28-.1.46-.16.62-.23,1.51-.64,3-1.29,4.52-1.9a.77.77,0,0,0,.55-.85c0-3.19,0-6.38,0-9.57V66l.22,0L42,75.55c2-.85,3.9-1.65,5.79-2.49.12-.06.18-.47.13-.68q-1-3.59-2-7.16A9.33,9.33,0,0,0,44.32,61.79Z" transform="translate(4.67 2.76)"/><path d="M30.52,50v.8c0,7.91,0,15.82,0,23.74a25,25,0,0,1-1,8.14,9.25,9.25,0,0,1-2.75,4.22,6.73,6.73,0,0,1-9.53-1.37,12.93,12.93,0,0,1-2.11-5.93c-.2-1.49-.24-3-.36-4.51,0-.42.12-.58.52-.68,2.18-.56,4.34-1.16,6.51-1.71a.66.66,0,0,0,.59-.77c0-5.75,0-11.5,0-17.25a1.15,1.15,0,0,1,.79-1.27c2.19-1,4.35-2,6.51-3Zm-8.8,23.68c-2,.53-3.89,1-5.8,1.57-.11,0-.23.32-.22.48.1,1.38.17,2.76.37,4.13a12,12,0,0,0,2.08,5.4c1.72,2.37,6.6,3.15,8.92-.1a9.43,9.43,0,0,0,1.87-4.29,64.32,64.32,0,0,0,.61-7.32c.07-7.09,0-14.18,0-21.27v-.75c-.26.1-.41.15-.56.22-1.43.66-2.82,1.4-4.29,1.95-1.08.41-1.62,1-1.39,2.16a4.73,4.73,0,0,1,0,.75c0,6.17,0,12.33-.08,18.5A18.69,18.69,0,0,1,23,77.75a4.16,4.16,0,0,1-.4,1C21.54,77.1,21.89,75.37,21.72,73.63Z" transform="translate(4.67 2.76)"/><path d="M59.94,38.33c-.21.28-.41.52-.58.78a2.24,2.24,0,0,0-.27,2.53c.08.13,0,.4-.09.56-.32.56-.73,1.08-1,1.65a14.94,14.94,0,0,0-.6,1.73L53,45.11l-4.53-.5v4.2h-.15c-.17-.48-.33-1-.52-1.45A5.07,5.07,0,0,0,44,44.06a20.2,20.2,0,0,0-2.29-.37,1,1,0,0,1-.93-.59,10.84,10.84,0,0,0-.61-1.17c-.2-.34-.44-.65-.66-1-.28.13-.5.31-.69.29a1.41,1.41,0,0,1-.89-.35,9.84,9.84,0,0,1-.77-1.56l2.24.56.2-.14-.94-3.09,3-1.22c0,.25,0,.54.08.84l.54,5.26c.08.8.54,1,1.27.64a5.16,5.16,0,0,0,.58-.4l1.1,2c.38-.41.71-.79,1.06-1.14.75-.75,1.23-.64,1.61.35.15.39.26.79.41,1.25a3.91,3.91,0,0,0,2.47-2.07l1.74,1.91c1-2,2.24-3.22,4.52-1.56a8.53,8.53,0,0,0,.36-1.63c0-1.57,0-3.14,0-4.71a2.71,2.71,0,0,1,.17-.68c.23.12.54.19.68.38C58.87,36.71,59.39,37.52,59.94,38.33Z" transform="translate(4.67 2.76)"/><path d="M30.57,32.45a4.37,4.37,0,0,1,1.22-2.33l1,2.36,2.07-1.14c.19.51.4,1,.55,1.51s.25,1,.39,1.64a6.09,6.09,0,0,0,2.71-1l.61,2.42-4.55-.23c1.68.78,3.58,1.29,4.24,3.43-.69-.27-1.31-.58-2-.77A17.35,17.35,0,0,0,34.65,38a1.43,1.43,0,0,0-.74.09,1.13,1.13,0,0,0-.6.53c-.05.13.25.46.46.57.39.19.84.26,1.24.43a6.94,6.94,0,0,1,1.61.81c.57.42.45.9-.2,1.16-.22.08-.43.16-.66.23-1.67.46-2.59-.12-3-1.8A17.7,17.7,0,0,0,32,38c-.22-.6-.12-.8.5-.93.38-.08.77-.12,1.24-.18a3.25,3.25,0,0,0-2.55-1.38c-.22,0-.62-.21-.63-.35s.1-.73.28-.79a4.7,4.7,0,0,1,1.62-.26,5.77,5.77,0,0,1,1.36.38A7.19,7.19,0,0,0,30.57,32.45Z" transform="translate(4.67 2.76)"/><path d="M76.93,33.72c-2.3-.18-3,1.55-4.06,2.78l.08.19c.24,0,.47.08.71.1,2.35.17,3.08,1.44,2,3.53a4.15,4.15,0,0,1-.82,1.11c.08-.39.17-.78.24-1.18.11-.71.25-1.45-.45-2a2.64,2.64,0,0,0-2.69.06,7.34,7.34,0,0,0-1.19,1.51,9.48,9.48,0,0,0-.66,1.36c-.21.45-.4.92-.65,1.52a3.94,3.94,0,0,1-.81-2.13,5.75,5.75,0,0,1,1.15-3.71c1.08-1.65,2.15-3.3,3.27-4.92a4.6,4.6,0,0,1,1.2-1.17,1.1,1.1,0,0,1,1.81.49C76.39,32,76.6,32.79,76.93,33.72Z" transform="translate(4.67 2.76)"/><path d="M34,6.18c.44.22.74.35,1,.51l3.28,1.86a3.54,3.54,0,0,1,.73.48,3.46,3.46,0,0,1,.42.63,2.37,2.37,0,0,1-.75.22c-.55,0-1.1-.13-1.84-.22.75.62,1.28,1.24,2.17,1.3.54,0,.89-.09,1-.67,0-.16.23-.41.36-.41a1.22,1.22,0,0,1,.73.25c.07,0,0,.43-.16.59a3.44,3.44,0,0,1-.66.66l-2.56,1.94a5.77,5.77,0,0,0-1.14,1.32,19.88,19.88,0,0,1-3,3.31c-.46.39-1.31.32-2.09.49a5.53,5.53,0,0,1,.36-.77c.8-1.12,1.63-2.23,2.44-3.35.11-.16.24-.45.17-.58a10.24,10.24,0,0,1-.75-5.35C33.78,7.69,33.91,7,34,6.18Zm1.32,2.51c.21,1.29.4,2.48.59,3.66a.7.7,0,0,0,.09.29c.15.21.31.4.47.6.47-.42,1-.83,1.39-1.29.07-.07-.05-.39-.16-.52-.61-.71-1.24-1.4-1.86-2.1Z" transform="translate(4.67 2.76)"/><path d="M24.78,41.76A4.15,4.15,0,0,1,24,38.11,1.7,1.7,0,0,1,25.61,37l.95-.08c-1.24-1.15-1.85-2.81-3.69-3.18a4.71,4.71,0,0,1,1.22-2.13,1.19,1.19,0,0,1,1.61-.14,2.86,2.86,0,0,1,.86.8c1.33,2.11,2.69,4.2,3.91,6.37a7,7,0,0,1,.64,2.58A1.62,1.62,0,0,1,30,42.86c-.06-.18-.12-.32-.16-.47a6,6,0,0,0-2.81-3.85,3.3,3.3,0,0,0-.69-.31,1.19,1.19,0,0,0-1.72,1,7.3,7.3,0,0,0,0,1.62A6.89,6.89,0,0,0,24.78,41.76Z" transform="translate(4.67 2.76)"/><path d="M24.75,46.1c-.36-.32-.7-.66-1.08-.94A12.13,12.13,0,0,0,21.89,44c-1.41-.69-2.12-.42-3.08,1-.1-.43-.36-.92-.25-1.28s.6-.59,1-.74a6.63,6.63,0,0,1,1.41-.22,7.39,7.39,0,0,0-2.75-1.34,1.2,1.2,0,0,1-.71-.46,27.13,27.13,0,0,1-1.32-2.5.61.61,0,0,1,.13-.6c.8-.45,1.63-.84,2.46-1.24.42-.21.67-.1.84.39a3.46,3.46,0,0,0,.84,1.65c1.19.91,1.9,2.24,3.05,3.18a6.51,6.51,0,0,1,1.4,1.76A2.35,2.35,0,0,1,24.75,46.1Z" transform="translate(4.67 2.76)"/><path d="M80.65,44.4c-.49-1.25-.87-1.51-1.93-1a29.73,29.73,0,0,0-3.16,1.78,6,6,0,0,0-.6.46,3.16,3.16,0,0,1,.49-3.41c1-1.06,1.83-2.18,2.75-3.26.09-.12.18-.29.3-.31,1-.17,1.28-1.06,1.63-1.82.44-.94.46-1,1.35-.42.48.29,1,.56,1.45.87s.65.71.32,1.33c-.23.45-.47.89-.72,1.33a2.69,2.69,0,0,1-2,1.29c-.63.12-1.27.25-1.89.43-.2.06-.34.31-.51.48.19.14.36.37.57.42a8.67,8.67,0,0,0,1.25.11.93.93,0,0,1,.37.06c.34.16.66.35,1,.53Z" transform="translate(4.67 2.76)"/><path d="M48.45,77.77l4.5.51,4.42.48C54.63,80.4,44.08,80,40.62,78.18l7.83-3.33Z" transform="translate(4.67 2.76)"/><path d="M66.6,39.75a1,1,0,0,1-.89,1.07A8.84,8.84,0,0,1,63.6,41c-1.26,0-2.51-.16-3.93-.27.82-1,1.59-1.88,2.38-2.77s1.64-1.78,2.46-2.67l-.11-.18-4.08,2.23-.18-.18c.87-1.36,1.7-2.74,2.63-4.06.34-.5.67-.39.91.17s.43.63,1,.2A3,3,0,0,1,65.93,33a1,1,0,0,1,.83.41,1.08,1.08,0,0,1-.15.91c-.38.52-.87,1-1.3,1.45-.77.88-1.53,1.77-2.24,2.72,1.43-.74,2.33-2.33,4.06-2.55l.21.22a2.93,2.93,0,0,0-.65.43c-.58.65-1.11,1.36-1.71,2s-1.17,1-1.85,1.63a5.8,5.8,0,0,0,1.81.35A5.63,5.63,0,0,0,66.6,39.75Z" transform="translate(4.67 2.76)"/><path d="M73.23,44.68a2.53,2.53,0,0,0,.23.63,4.44,4.44,0,0,0,1,1.16.87.87,0,0,1,.46,1.09,15.51,15.51,0,0,1-.74,1.73.41.41,0,0,1-.34.2,5.53,5.53,0,0,0-3.57.73c-.33-1.34-.67-1.78-1.31-1.72s-.82.47-.83,1.54c-.45-.5-.91-.83-.87-1.5,0-.44,0-.89,0-1.32s-.15-.59-.56-.62c-.72-.06-.87-.33-.55-1a1.68,1.68,0,0,1,.69-.77c.75-.35,1.54-.6,2.32-.88l.17.17c-.16.57-.3,1.14-.48,1.71s-.41,1.08-.67,1.73C70.28,47.25,71.68,45.9,73.23,44.68Z" transform="translate(4.67 2.76)"/><path d="M65.41,46.46a9.93,9.93,0,0,1-1.29-.15c-.17,0-.31-.27-.43-.44a11.84,11.84,0,0,0-1.12-1.64,1.38,1.38,0,0,0-2.39.37,3.54,3.54,0,0,0-.16.34c-.43,1-.43,1-1.45.79-.33-.06-.47-.21-.37-.51a6,6,0,0,1,2.62-3.47,2,2,0,0,1,1.4-.09,21.22,21.22,0,0,1,2.91,1c1.36.56,1.63.47,2.14-.91,0-.05.06-.09.15-.21l1.34,1.81C67.2,44,65.52,44.4,65.41,46.46Z" transform="translate(4.67 2.76)"/><path d="M19.48,48.91c-.75-.41-1.34-.77-2-1.06a6.08,6.08,0,0,0-1.37-.44,1.49,1.49,0,0,0-1.87,1.31c-.07.34-.1.69-.15,1.07-1.11-1.28-.75-2.86.94-3.64-.74-.21-1.33-.4-1.94-.56A2,2,0,0,1,12,42.74a1.12,1.12,0,0,1,1.43-.49,9.68,9.68,0,0,1,2.36,1.36,25.88,25.88,0,0,1,2.54,2.69A4.11,4.11,0,0,1,19.48,48.91Z" transform="translate(4.67 2.76)"/><path d="M49.24,37.15l-.41-.68-.91.67-1.15-2.62-.63.57L46,35a23,23,0,0,1,.9-2.36c.33-.65.92-.71,1.46-.19a12.66,12.66,0,0,1,1.18,1.45c.15.19.27.4.44.65a18.21,18.21,0,0,1,.79-1.65c.45-.77,1-.77,1.52-.09a6.31,6.31,0,0,0,.76.7A1.53,1.53,0,0,1,53.55,35c-.07,0-.12,0-.14,0-.63-.59-.78-.56-1.09.25-.25.64-.45,1.3-.7,2L51,36.63l-.59.36-.52-.67Z" transform="translate(4.67 2.76)"/><path d="M44.72,26l-3.25-.16c.13-1.1.25-1.19,1.2-1a6.28,6.28,0,0,0,1,0c0-.52-.54-.34-.81-.5l-.33-.17a5.7,5.7,0,0,1,.82-.62c.34-.16.63-.13.71.37a1.87,1.87,0,0,0,1.19,1.4,8.23,8.23,0,0,1,3.25,2.89.77.77,0,0,1-.54,1.29,8.8,8.8,0,0,1-5-.52.62.62,0,0,1-.32-.4c0-.09.21-.29.34-.31.51-.09,1-.1,1.55-.19a2.38,2.38,0,0,0,.61-.32L45,27.57c-.91,0-1.82,0-2.73,0-.44,0-.6-.14-.65-.54s.06-.59.48-.58c.72,0,1.43,0,2.14,0a1.68,1.68,0,0,0,.55-.25Z" transform="translate(4.67 2.76)"/><path d="M85.67,49.51c-.08-.43-.11-.69-.17-.95a1.67,1.67,0,0,0-2-1.48,22,22,0,0,0-2.69.84c-.17.06-.33.14-.63.27a3.42,3.42,0,0,1,.19-.73,7.32,7.32,0,0,1,.72-1c.86-1,1.8-2,2.61-3a2.93,2.93,0,0,1,2.85-1.2,1.5,1.5,0,0,1,1.42,1,1.53,1.53,0,0,1-.53,1.69,2.58,2.58,0,0,1-1.88.55,6.09,6.09,0,0,0-1.4.22c-.12,0-.22.23-.26.37s.2.19.32.23A2.33,2.33,0,0,1,85.67,49.51Z" transform="translate(4.67 2.76)"/><path d="M26.57,45.33A9.56,9.56,0,0,0,31,47.84c.16,0,.37.17.4.3a.5.5,0,0,1-.21.45c-1.61.77-3.24,1.52-4.9,2.29A8.64,8.64,0,0,1,25,47.28a.34.34,0,0,1,.07-.28C25.54,46.45,26,45.91,26.57,45.33Z" transform="translate(4.67 2.76)"/><path d="M23.18,47.78c-.1-.55-.22-1.1-.3-1.65a1.35,1.35,0,0,1,.12-.51,1.24,1.24,0,0,1,.46.23,2.38,2.38,0,0,1,.51.79c.52,1.5,1,3,1.53,4.62a2.5,2.5,0,0,1-.63.06A3.6,3.6,0,0,1,22.5,50c-.87-1.17-1.64-2.43-2.45-3.65a1,1,0,0,1-.1-.29c-.1-.54-.5-1.23.07-1.57.35-.21,1,0,1.51.19a.76.76,0,0,1,.38.59A3.89,3.89,0,0,0,23.18,47.78Z" transform="translate(4.67 2.76)"/><path d="M31.06,43.8l1.08-2.13c.42,1.46.74,1.63,2.39,1.33,1.13-.21,2.22-.62,3.33-.93,1.4-.38,1.59-.29,2.15,1,.08.19.17.38.29.64-.62.1-1.11.51-1.81.21a1.36,1.36,0,0,0-1.56.56c-.66.81-1.64.89-2.49,1.24a.42.42,0,0,1-.37-.12A4.9,4.9,0,0,0,31.55,44C31.4,44,31.26,43.89,31.06,43.8Z" transform="translate(4.67 2.76)"/><path d="M19.73,55.34a22.45,22.45,0,0,1-2-1.45A9.4,9.4,0,0,1,15,49.46c-.16-.51-.15-1.1.39-1.22a4,4,0,0,1,1.6.24c.05,0,.07.26.06.39a3.35,3.35,0,0,0,.89,2.51c0-.47-.06-1-.1-1.43s-.06-.77.45-.79.57.33.55.74a9.59,9.59,0,0,0,1,5.05,1.55,1.55,0,0,1,.05.23Z" transform="translate(4.67 2.76)"/><path d="M76.67,47.74c.31-.74.6-1.49,1-2.21a4.37,4.37,0,0,1,.89-1.33.76.76,0,0,1,1.29.47,2.33,2.33,0,0,1,0,1A6.76,6.76,0,0,1,76.46,50c-.4.22-1.08-.07-1.58-.12.25-1.27.44-2.38.71-3.46.14-.56.63-.78,1.26-.94l-.5,2.18Z" transform="translate(4.67 2.76)"/><path d="M28.45,43.72a7.08,7.08,0,0,1,0-2.75l.25,0L30,46.75a3.25,3.25,0,0,1-.51-.17,8.74,8.74,0,0,1-4.35-6.64.64.64,0,0,1,0-.31c.17-.25.37-.49.56-.73.22.18.53.33.65.57.63,1.25,1.2,2.53,1.8,3.8A4.3,4.3,0,0,0,28.45,43.72Z" transform="translate(4.67 2.76)"/><path d="M81.47,48.68l.31,2.23.15.07c.22-.51.44-1,.64-1.55a2.65,2.65,0,0,0,.09-.49c.13-.79.48-1.09,1.1-.95a1.28,1.28,0,0,1,.92,1.5,8.36,8.36,0,0,1-4.1,4.89,4.86,4.86,0,0,1-.16-1.09c.1-1.07.24-2.13.4-3.18.07-.49.21-1,.32-1.43Z" transform="translate(4.67 2.76)"/><path d="M50.12,26.75l-.65-1.57h-.22c-.14.24-.29.47-.41.72s-.2.54-.34.91c-.24-.24-.44-.41-.62-.6a5.6,5.6,0,0,0-2.48-1.65.75.75,0,0,1-.44-.32c-.11-.15-.22-.45-.15-.55a.71.71,0,0,1,.58-.21c.76.1,1.52.3,2.28.39a8.63,8.63,0,0,0,3.61-.14,5.34,5.34,0,0,1,1.55-.14c.17,0,.34.17.52.26a1.62,1.62,0,0,1-.28.46C52.1,25.12,51.12,25.93,50.12,26.75Z" transform="translate(4.67 2.76)"/><path d="M16.39,55.84c-.1-.26-.2-.44-.25-.63s-.15-.66-.2-1c-.22-1.29-2.93-3-4.16-2.61a1.16,1.16,0,0,0-.79,1.3c0,.78.21,1.56.32,2.32a2.76,2.76,0,0,1-.24-4.13c-.5-.31-1-.59-1.48-.92a3.27,3.27,0,0,1-.69-.65.7.7,0,0,1,.2-1.16,2.38,2.38,0,0,1,.45-.23c.82-.32.81-.3,1.23.46a4.5,4.5,0,0,0,3.5,2.67.52.52,0,0,1,.33.13c.67.93,1.37,1.85,1.95,2.83A1.41,1.41,0,0,1,16.39,55.84Z" transform="translate(4.67 2.76)"/><path d="M71.47,40.64,71,43.76l.17.06a11.94,11.94,0,0,0,.64-1.09c.49-1.07.94-2.15,1.43-3.21.19-.4.35-1.07.86-.88.28.11.49.87.44,1.3a7.42,7.42,0,0,1-3.82,5.81l-.83.44a2.75,2.75,0,0,1-.31.05l1.73-5.68Z" transform="translate(4.67 2.76)"/><path d="M68.11,28.25c.3.23.47.34.62.48l2.59,2.41-2.64,3.62c-.68-.88-1.29-1.75-2-2.52a1.49,1.49,0,0,1-.41-1.41,2.33,2.33,0,0,1,.23-.44l1.56,2A13.76,13.76,0,0,0,68.11,28.25Z" transform="translate(4.67 2.76)"/><path d="M83,55.43a8.6,8.6,0,0,1,.34-1.35,18.69,18.69,0,0,1,.92-1.78,2.27,2.27,0,0,1,1.89-1.38c1.38-.15,2-1.28,2.54-2.46a1,1,0,0,1,1-.71,1,1,0,0,1,1.06.77A1.23,1.23,0,0,1,90,49.83c-.58.25-1.12.56-1.78.9.22.2.29.27.37.33.4.25.86.44.85,1-.06,1.91-.2,2.33-1.08,2.82.08-.52.14-1,.23-1.44.46-2.18-1.22-2.45-2.59-2.08a2.84,2.84,0,0,0-1.9,1.71c-.33.78-.62,1.57-.94,2.36Z" transform="translate(4.67 2.76)"/><path d="M83.63,58c.24-1.25.5-2.55.76-3.85,0-.08,0-.18.09-.23l.77-.65a3.89,3.89,0,0,1,.22.86c0,.43,0,.85-.08,1.28l.17.07a3.51,3.51,0,0,0,.44-.83,6.9,6.9,0,0,0,.26-1.73c0-.63.28-.74.79-.74.91,0,1,.13.84,1A6.13,6.13,0,0,1,83.63,58Z" transform="translate(4.67 2.76)"/><path d="M14.25,55.71c0-.49,0-1,0-1.48,0-.18.16-.5.21-.49a1.38,1.38,0,0,1,.65.26.64.64,0,0,1,.17.46,10.11,10.11,0,0,0,1,3.93A6.08,6.08,0,0,1,11.85,53c0-.3,0-.57.41-.53s.88-.18,1,.46.28,1.39.45,2.08a5.45,5.45,0,0,0,.35.79Z" transform="translate(4.67 2.76)"/><path d="M64.08,12c-1.39-.94-1.55-1.77-.5-2.65-.68,0-.82-.34-.7-1l-1.74.42L62.6,7c.25-.3.52-.6.78-.9.44-.5.73-.52,1,.1a5.45,5.45,0,0,1,.53,2A8.77,8.77,0,0,1,64.08,12Z" transform="translate(4.67 2.76)"/><path d="M20.85,49.45a6,6,0,0,0,3.3,2.43c-.67.32-1.32.67-2,.93a.89.89,0,0,0-.67,1.09,4.3,4.3,0,0,1,0,.79c-.58,0-1-.14-1.09-.68-.2-.77-.41-1.53-.58-2.31a.62.62,0,0,1,.15-.53C20.64,50.83,20.77,50.2,20.85,49.45Z" transform="translate(4.67 2.76)"/><path d="M48.43,57.06v9.53l-.12,0c-.1-.35-.18-.7-.3-1.05-.41-1.14-.84-2.27-1.24-3.42a1.2,1.2,0,0,1,0-.7c.49-1.35,1-2.7,1.51-4.05C48.28,57.33,48.32,57.27,48.43,57.06Z" transform="translate(4.67 2.76)"/><path d="M52.91,32.68l-1.14-1.91a4.67,4.67,0,0,1-.67.39.52.52,0,0,1-.44,0c-.65-.52-.64-.53-1.3,0l-.27-.21-.26-.22-.71.5c-.56-.7-.54-.81.22-1.18.19-.1.38-.18.56-.29a1.53,1.53,0,0,1,1.59,0,7,7,0,0,0,2.56.35c.54,0,.71.17.57.64C53.42,31.33,53.17,32,52.91,32.68Z" transform="translate(4.67 2.76)"/><path d="M58.36,25.24l-.22-1.33,4.59-.6c-.15.62-.24,1.15-.41,1.67,0,.12-.28.25-.44.25C60.74,25.25,59.59,25.24,58.36,25.24Z" transform="translate(4.67 2.76)"/><path d="M40.68,24.5a1,1,0,0,1,.07.15c.1,1.31.06,1.35-1.21,1.44l-.19,0c-1.4.1-1.65-.12-1.79-1.61Z" transform="translate(4.67 2.76)"/><path d="M31.16,47.49l-.86-3a3,3,0,0,1,3.14,1.54c-.42.16-.85.34-1.28.47s-.83.3-.72.91Z" transform="translate(4.67 2.76)"/><path d="M77.23,50.72,78.79,49a8.12,8.12,0,0,1,1,1.84,5.47,5.47,0,0,1-.21,1.84Z" transform="translate(4.67 2.76)"/><path d="M17.38,54.55A6.44,6.44,0,0,0,21,56.39c.18,0,.29.31.43.47-.18.1-.37.3-.52.28-1.09-.18-2.18-.39-3.25-.62a.51.51,0,0,1-.3-.34c-.06-.51-.08-1-.12-1.54Z" transform="translate(4.67 2.76)"/><path d="M61.72,26.2c-.33,1.2-.57,1.4-1.72,1.4H58.2l.25-1.4Z" transform="translate(4.67 2.76)"/><path d="M67.44,49.89l.87,1.19.28-.13a5.16,5.16,0,0,1,.2-1c.1-.22.35-.38.52-.57.15.21.43.43.43.64a2.05,2.05,0,0,1-.37.88c-.21.31-.49.57-.73.86s-.31.59-.78.39-.68-.35-.62-.85,0-.88,0-1.31Z" transform="translate(4.67 2.76)"/><path d="M47.16,30.6l-1.65,2.76A4.49,4.49,0,0,1,45,30.84c0-.09.23-.23.36-.23C45.9,30.58,46.44,30.6,47.16,30.6Z" transform="translate(4.67 2.76)"/><path d="M44.7,16.61c-1,.94-2.29.51-2.74-.9A2.25,2.25,0,0,1,44.7,16.61Z" transform="translate(4.67 2.76)"/><path d="M9,42.14c-.19,1.43-.34,2.71-.54,4,0,.25-.32.45-.48.68l-.25-.12c.21-1.33.4-2.66.65-4C8.37,42.5,8.7,42.36,9,42.14Z" transform="translate(4.67 2.76)"/><path d="M28.31,31.63l3.29-3.19c.32.37.49.67.13.95-.95.74-1.92,1.47-2.89,2.19a2.63,2.63,0,0,1-.41.21Z" transform="translate(4.67 2.76)"/><path d="M36.68,26.14c-.18,0-.44,0-.51-.08-.26-.39-.54-.53-1-.3,0,0-.27-.21-.3-.35-.07-.39-.07-.79-.11-1.18.73-.22,1-.12,1.31.51L36.78,26Z" transform="translate(4.67 2.76)"/><path d="M68.69,69.07c-.45-.13-.83-.22-1.2-.36a.45.45,0,0,1-.23-.32,22.52,22.52,0,0,1,.09-2.84Z" transform="translate(4.67 2.76)"/><path d="M46.84,35.9a17.87,17.87,0,0,1,.25,1.93c0,.09-.41.32-.59.28s-.6-.36-.57-.46c.18-.61.45-1.18.69-1.77Z" transform="translate(4.67 2.76)"/><path d="M62.74,27.51c.19-1.4.48-1.69,1.5-1.47C64.17,27.21,63.72,27.65,62.74,27.51Z" transform="translate(4.67 2.76)"/><path d="M38.27,28.25c-1,.38-1,.49-1.87-1.11C37.12,26.76,37.39,26.84,38.27,28.25Z" transform="translate(4.67 2.76)"/><path d="M63.77,25.27c.1-.6.18-1.18.32-1.74,0-.14.26-.23.4-.35.11.14.3.28.3.42a6.94,6.94,0,0,1-.1,1.11C64.63,25.24,64.34,25.43,63.77,25.27Z" transform="translate(4.67 2.76)"/><path d="M39.05,26.93c1.53-.34,1.55-.33,1.86.72C39.61,28.08,39.32,28,39.05,26.93Z" transform="translate(4.67 2.76)"/><path d="M53.14,35.83a17.15,17.15,0,0,1,.12,1.76c0,.51-.54.67-1.08.37l.71-2.15Z" transform="translate(4.67 2.76)"/><path d="M60.3,45.88c.24-.54.25-1.18.93-1.08.15,0,.38.68.28.93C61.28,46.3,60.79,45.88,60.3,45.88Z" transform="translate(4.67 2.76)"/><path d="M50.35,38l.59-.7.14,1.09a5.22,5.22,0,0,1-1.26-.07c-.1,0,0-.58-.07-.9l.25-.1Z" transform="translate(4.67 2.76)"/><path d="M82.13,54.38c-.07.59.25,1.26-.56,1.62l-.46-.93Z" transform="translate(4.67 2.76)"/><path d="M62.06,45.84c.21-.14.44-.41.61-.37s.32.35.47.55l-.12.16-.86-.09Z" transform="translate(4.67 2.76)"/><path d="M48.72,37.16l.26,1.1-.93-.18Z" transform="translate(4.67 2.76)"/><path class="cls-1" d="M54.9,12H53.26A2,2,0,0,1,55,10.84a1.61,1.61,0,0,1,1.07,1.41.62.62,0,0,1-.53.83,4.87,4.87,0,0,0-1.09.3,3.4,3.4,0,0,0-1,.86,15.9,15.9,0,0,1,4.12-.17c0,.11,0,.17,0,.19-.73.49-.91,1.34-1.36,2a4.56,4.56,0,0,1-1.44,1c-.39.23-.79.42-1.28.68l.65.34a13.76,13.76,0,0,0-.49,1.5,1.85,1.85,0,0,0,.52,1.9,1.18,1.18,0,0,1,.45,1.23c-.57-.4-1.13-.77-1.66-1.17a.59.59,0,0,1-.14-.39c-.12-1.18-.14-1.2-1.36-1.08l.54-1.19-1.47-.32,1.33-1c-.6-.84-1.71-1.53-1-2.81,0,0,.1,0,.12,0,.65.93,1.12.91,1.68-.07a3.26,3.26,0,0,0,.32-.68,2.27,2.27,0,0,1,1.06-1.35,10.14,10.14,0,0,0,.89-.73Zm.52,3.09A2.52,2.52,0,0,0,53.35,17C55,17.13,55.64,16.56,55.42,15.09Z" transform="translate(4.67 2.76)"/><path class="cls-1" d="M40.63,13.65a1.08,1.08,0,0,1,1.31-.82,1,1,0,0,0,.84-.35,2.79,2.79,0,0,1,1.47-.69c.54-.06.74.44.72,1-.77-.18-.77-.18-1.3,1.11Z" transform="translate(4.67 2.76)"/><path class="cls-1" d="M50.38,46.7l5.5.6c.45.05.38.37.38.66,0,2.77,0,5.54,0,8.31,0,.69.2.91.86.92s1.5.15,2.35.25V47.77a2.66,2.66,0,0,1,.46,0c1.64.17,3.29.37,4.94.53.38,0,.54.17.54.58q0,14.24,0,28.45c0,.11,0,.21,0,.41-.61,0-1.2-.09-1.8-.15-1.18-.13-2.37-.28-3.56-.38-.51,0-.53-.33-.53-.73,0-3.29,0-6.59,0-9.88,0-.52-.11-.76-.67-.78-.81,0-1.62-.17-2.52-.26V76.73c-.76-.07-1.42-.12-2.07-.19-1.11-.11-2.21-.26-3.32-.36-.42,0-.56-.19-.56-.62q0-14.16,0-28.33C50.34,47.09,50.36,47,50.38,46.7Z" transform="translate(4.67 2.76)"/><path class="cls-1" d="M81.29,66,77,64.65a2.28,2.28,0,0,0,.16.34c3.63,3.82,4.7,8.5,4.58,13.58A17,17,0,0,1,80.79,84c-.08.24-.18.47-.28.7-1.19,2.62-3.21,3.38-5.81,2.17a9.15,9.15,0,0,1-4.86-5.28,27.93,27.93,0,0,1-1.64-8.24c0-.76-.07-1.53-.11-2.41l3,1c.66.2,1.32.43,2,.6.42.1.54.32.58.74A36,36,0,0,0,74.22,77a5.53,5.53,0,0,0,.86,1.8c.37.54.72.46.87-.18a5,5,0,0,0-.57-4,17.63,17.63,0,0,0-2-2.4,17.1,17.1,0,0,1-4.74-11.93,17.18,17.18,0,0,1,.6-5.29c1-3.46,3.4-4.44,6.59-2.73a9.2,9.2,0,0,1,4.29,5.45,28.11,28.11,0,0,1,1.23,7.94C81.34,65.72,81.31,65.82,81.29,66Zm-5.54-2.63c0-2-.62-3.67-1.49-4A3.3,3.3,0,0,0,75.75,63.39Z" transform="translate(4.67 2.76)"/><path class="cls-1" d="M44.32,61.79A9.33,9.33,0,0,1,46,65.22q1,3.57,2,7.16c0,.21,0,.62-.13.68C45.91,73.9,44,74.7,42,75.55L39.26,66,39,66v.65c0,3.19,0,6.38,0,9.57a.77.77,0,0,1-.55.85c-1.51.61-3,1.26-4.52,1.9-.16.07-.34.13-.62.23v-.73q0-14.83,0-29.65a.8.8,0,0,1,.65-.94c2-.65,3.88-1.35,5.82-2a6,6,0,0,1,4.75.45A3.06,3.06,0,0,1,46,47.9a14,14,0,0,1,.84,3.65A15.83,15.83,0,0,1,45.36,60C45.07,60.61,44.69,61.17,44.32,61.79ZM39.05,58.5c.35-.18.59-.28.81-.42a3,3,0,0,0,1.26-3c0-1.22-.11-1.25-1.21-.79a3.64,3.64,0,0,0-.57.25c-.12.08-.28.24-.28.36C39,56.05,39.05,57.21,39.05,58.5Z" transform="translate(4.67 2.76)"/><path class="cls-1" d="M21.72,73.63c.17,1.74-.18,3.47.86,5.08a4.16,4.16,0,0,0,.4-1,18.69,18.69,0,0,0,.25-2.69c0-6.17.05-12.33.08-18.5a4.73,4.73,0,0,0,0-.75c-.23-1.18.31-1.75,1.39-2.16,1.47-.55,2.86-1.29,4.29-1.95.15-.07.3-.12.56-.22v.75c0,7.09.05,14.18,0,21.27a64.32,64.32,0,0,1-.61,7.32,9.43,9.43,0,0,1-1.87,4.29c-2.32,3.25-7.2,2.47-8.92.1a12,12,0,0,1-2.08-5.4c-.2-1.37-.27-2.75-.37-4.13,0-.16.11-.45.22-.48C17.83,74.66,19.75,74.16,21.72,73.63Z" transform="translate(4.67 2.76)"/><path class="cls-1" d="M35.34,8.69l.52.64c.62.7,1.25,1.39,1.86,2.1.11.13.23.45.16.52-.43.46-.92.87-1.39,1.29-.16-.2-.32-.39-.47-.6a.7.7,0,0,1-.09-.29C35.74,11.17,35.55,10,35.34,8.69Z" transform="translate(4.67 2.76)"/><path d="M55.42,15.09c.22,1.47-.42,2-2.07,1.89A2.52,2.52,0,0,1,55.42,15.09Zm-.94,1.69c.4-.65.32-.85-.32-1Z" transform="translate(4.67 2.76)"/><path d="M75.75,63.39a3.3,3.3,0,0,1-1.49-4C75.13,59.72,75.78,61.43,75.75,63.39Z" transform="translate(4.67 2.76)"/><path d="M39.05,58.5c0-1.29,0-2.45,0-3.61,0-.12.16-.28.28-.36a3.64,3.64,0,0,1,.57-.25c1.1-.46,1.17-.43,1.21.79a3,3,0,0,1-1.26,3C39.64,58.22,39.4,58.32,39.05,58.5Z" transform="translate(4.67 2.76)"/><path class="cls-1" d="M54.48,16.78l-.32-1C54.8,15.93,54.88,16.13,54.48,16.78Z" transform="translate(4.67 2.76)"/></svg>