<svg version="1.1" viewBox="0.0 0.0 915.6981627296587 405.7217847769029" fill="none" stroke="none" stroke-linecap="square" stroke-miterlimit="10" xmlns:xlink="http://www.w3.org/1999/xlink" xmlns="http://www.w3.org/2000/svg"><clipPath id="p.0"><path d="m0 0l915.6982 0l0 405.72177l-915.6982 0l0 -405.72177z" clip-rule="nonzero"/></clipPath><g clip-path="url(#p.0)"><path fill="#000000" fill-opacity="0.0" d="m0 0l915.6982 0l0 405.72177l-915.6982 0z" fill-rule="evenodd"/><path fill="#434343" d="m328.43307 255.05774l-0.6876831 9.858276l107.31235 44.026245l0.45932007 -12.152222z" fill-rule="evenodd"/><path fill="#434343" d="m326.75067 233.50131l112.75064 41.748016l-2.0 34.0l-27.75064 -10.873993l-12.876648 3.2493286l-70.12335 -27.873993z" fill-rule="evenodd"/><path fill="#434343" d="m328.8924 237.62993l0 11.464554l107.31232 41.275604l-0.45932007 -14.674561z" fill-rule="evenodd"/><path fill="#f3f3f3" d="m329.12073 248.6378l106.85303 40.813644l-0.45669556 8.713898l-107.083984 -43.107605z" fill-rule="evenodd"/><path fill="#cfe2f3" d="m66.895164 -6.9494076c-121.73622 -1.2169724 -66.443565 -31.369204 -74.71391 -15.6377945c-8.270342 15.731408 -27.090115 101.62467 25.091864 110.026245c52.181976 8.401581 170.44576 -42.49606 288.0 -59.616795c117.55423 -17.120735 457.0551 -37.312336 417.32544 -43.107613c-39.729675 -5.7952757 -533.96716 9.552931 -655.7034 8.335958z" fill-rule="evenodd"/><path fill="#274e13" d="m672.1529 -0.61152834c-24.152649 -9.325022 16.510498 -20.178915 35.771667 -23.847769c19.261108 -3.6688538 52.585266 2.140419 79.79529 1.8346462c27.20996 -0.3057747 60.07611 -4.5866146 83.46454 -3.6692924c23.388428 0.91732407 48.30536 -2.9033241 56.86615 9.173229c8.560791 12.076552 7.0336914 55.184166 -5.501343 63.286087c-12.534973 8.101925 -27.975891 -6.8783913 -69.70862 -14.674541c-41.732727 -7.79615 -156.53503 -22.77734 -180.68768 -32.10236z" fill-rule="evenodd"/><path fill="#93c47d" d="m729.9367 34.242565c-4.891968 -8.254595 -12.230957 -16.50875 -2.753296 -22.929134c9.477722 -6.4203854 46.778625 -17.12161 59.619446 -15.593176c12.840759 1.5284338 6.7248535 24.610672 17.42517 24.763779c10.700378 0.15310478 31.948853 -25.526684 46.776917 -23.845144c14.828064 1.6815397 29.503479 26.291338 42.19159 33.934383c12.68811 7.6430435 36.230103 7.1850395 33.93701 11.923885c-2.2930908 4.738842 -19.262451 13.451881 -47.695557 16.509186c-28.433044 3.0573044 -97.98596 5.961941 -122.90289 1.8346443c-24.91687 -4.1272964 -21.70642 -18.34383 -26.598389 -26.598423z" fill-rule="evenodd"/><path fill="#274e13" d="m67.71899 137.88495c-121.83421 7.4903717 -69.70516 -53.80796 -82.54593 -69.70604c-12.840771 -15.898075 -6.727909 -22.625107 5.5013123 -25.682415c12.229221 -3.0573044 40.052055 12.077431 67.874016 7.338585c27.821957 -4.738846 64.204285 -30.879704 99.05774 -35.771652c34.853455 -4.8919516 76.89108 8.865704 110.063 6.4199467c33.171906 -2.445757 53.197723 -17.272964 88.968506 -21.094488c35.770752 -3.8215222 74.90463 1.9868767 125.65616 -1.8346457c50.751556 -3.8215222 139.5665 -21.706036 178.853 -21.09449c39.28656 0.6115494 47.694214 16.96763 56.86615 24.76378c9.171936 7.79615 106.54767 -0.7637795 -1.8346558 22.013123c-108.382324 22.776905 -526.6251 107.15793 -648.4593 114.6483z" fill-rule="evenodd"/><path fill="#d9d9d9" d="m830.8268 251.61679l42.19159 -33.01837l50.446167 -5.503937l-2.7506104 140.33334l-161.42786 57.782135l-223.79529 0l303.5932 -165.09448l40.35431 -31.18634l-39.438293 29.3517z" fill-rule="evenodd"/><path fill="#b6d7a8" d="m722.59845 298.3937l87.13385 31.18634l115.566895 -45.8609l-74.293945 -30.2677z" fill-rule="evenodd"/><path fill="#efefef" d="m659.3123 76.43307l-28.433044 93.55381l55.031494 25.682419l236.63782 9.170593l-1.8346558 -67.87138l-0.91864014 -43.107613l-76.12598 -11.923889z" fill-rule="evenodd"/><path fill="#b6d7a8" d="m-10.241469 164.48294l0.9160099 149.50394l136.66405 21.097107l166.0105 -54.11548l22.013123 -14.67453l-136.66142 24.763763l-34.853027 -13.758514l-17.427818 -2.7506714l-24.763779 -26.59842l-32.102364 -33.93701z" fill-rule="evenodd"/><path fill="#274e13" d="m106.126656 262.74973c-2.6251068 -2.0 -4.6885376 -4.6876526 -3.8136444 -6.3753357c0.8748932 -1.6876526 6.385826 -2.8547668 9.062988 -3.7506409c2.6771698 -0.8958893 4.708229 -3.2082367 7.0 -1.6246796c2.2917786 1.5835571 6.802719 8.230087 6.750656 11.125992c-0.05205536 2.895874 -3.8963242 6.145233 -7.0629883 6.2493286c-3.1666641 0.10412598 -9.311897 -3.6246643 -11.937012 -5.6246643z" fill-rule="evenodd"/><path fill="#6aa84f" d="m-5.656168 174.57217l19.262466 52.280838l65.120735 -11.005249l-0.91864014 -37.606293l-18.34383 -11.923889z" fill-rule="evenodd"/><path fill="#6aa84f" d="m-9.326456 150.72816c-11.770779 -9.324585 -11.61636 -28.27996 0.91863537 -38.52231c12.534996 -10.24234 48.45713 -15.440941 74.291336 -22.931755c25.834213 -7.490814 50.90464 -13.9112015 80.71391 -22.013123c29.80928 -8.101929 69.708664 -22.624237 98.14174 -26.598427c28.433075 -3.9741936 49.374023 6.880577 72.456696 2.7532806c23.082672 -4.1272964 32.40857 -23.695103 66.03937 -27.517061c33.6308 -3.8219604 97.070435 6.41951 135.74542 4.5853024c38.674927 -1.8342094 62.368286 -14.979441 96.30444 -15.590552c33.936157 -0.6111107 88.35693 3.5161858 107.31232 11.923884c18.955383 8.4077 116.4834 13.29965 6.419983 38.52231c-110.06348 25.222664 -543.7432 96.91558 -666.80054 112.81365c-123.057304 15.898071 -59.77253 -8.100616 -71.543304 -17.425201z" fill-rule="evenodd"/><path fill="#b6d7a8" d="m31.949617 167.2363c-93.40114 8.866135 -43.567368 -16.816711 -42.1916 -21.097122c1.3757658 -4.2803955 33.478127 2.140854 50.446194 -4.5852966c16.968067 -6.726166 35.92301 -28.587051 51.362206 -35.77166c15.439194 -7.184601 22.470253 -6.571739 41.272972 -7.3359528c18.802704 -0.7642212 46.473312 7.795273 71.543304 2.7506561c25.069992 -5.0446243 52.430878 -27.667984 78.87665 -33.01837c26.44574 -5.350395 52.740143 4.8906326 79.79788 0.916008c27.05774 -3.9746323 54.11548 -22.623798 82.54855 -24.763779c28.433075 -2.1399841 59.769928 14.828083 88.049866 11.923882c28.279968 -2.9041977 53.043762 -24.15179 81.629944 -29.34908c28.586182 -5.1972885 66.65137 -6.1146107 89.887146 -1.8346462c23.235779 4.2799644 75.36218 16.202536 49.527527 27.514437c-25.834656 11.311897 -84.076965 21.248466 -204.5354 40.356956c-120.458466 19.108482 -424.8141 65.42782 -518.2152 74.29397z" fill-rule="evenodd"/><path fill="#d9ead3" d="m-9.3254595 164.48396c2.2930884 2.7519684 7.3381453 14.065613 13.75853 16.51181c6.420385 2.4461823 16.509186 -1.6815491 24.763779 -1.8346558c8.254593 -0.15310669 16.814526 1.9860077 24.763779 0.9160156c7.949257 -1.0699921 -15.743656 -0.45713806 22.931759 -7.3359528c38.675415 -6.87883 155.77036 -25.529312 209.12073 -33.93701c53.350403 -8.4077 64.66318 -10.394577 110.98163 -16.509186c46.31845 -6.1146164 122.7511 -14.522316 166.92914 -20.178482c44.17804 -5.656166 67.10718 -9.936569 98.1391 -13.75853c31.031921 -3.8219604 72.460205 -2.90551 88.05249 -9.173225c15.592285 -6.2677155 10.3932495 -21.095802 5.501343 -28.433071c-4.891968 -7.3372726 -23.388062 -14.062119 -34.853027 -15.590553c-11.465027 -1.5284348 -23.083557 5.808838 -33.93701 6.4199486c-10.853455 0.6111107 -21.09491 -5.3521423 -31.183716 -2.7532806c-10.088806 2.5988617 -17.578308 12.842957 -29.349121 18.346455c-11.770752 5.503502 35.769043 3.5153122 -41.275574 14.674541c-77.04462 11.159233 -326.0621 38.217407 -420.99213 52.280838c-94.93001 14.063431 -123.82327 26.749786 -148.58792 32.099747" fill-rule="evenodd"/><path fill="#b6d7a8" d="m533.6562 339.66928l95.38843 -32.102356l90.80316 3.669281l60.5354 26.59845l-235.72174 72.45932l-68.79004 -39.44095l73.37793 -36.687683z" fill-rule="evenodd"/><path fill="#93c47d" d="m130.9997 214.74976c5.7917786 -6.125107 -0.54112244 -2.7497864 2.7506561 -3.0c3.2917786 -0.25021362 14.04155 -1.1264191 17.0 1.4986877c2.958435 2.6251068 2.4588776 11.043304 0.7506561 14.251968c-1.7082214 3.208664 -6.7497864 2.708664 -11.0 5.0c-4.2502136 2.291336 -10.95932 5.3315887 -14.501312 8.748032c-3.5419998 3.4164429 -3.5424347 8.958878 -6.750656 11.750656c-3.208229 2.7917786 -9.123802 5.749771 -12.498688 4.9999847c-3.3748932 -0.74975586 -11.792213 -2.290451 -7.750656 -9.4986725c4.0415573 -7.2082214 26.208221 -27.62555 32.0 -33.750656z" fill-rule="evenodd"/><path fill="#b6d7a8" d="m479.54068 309.40158l154.08926 -44.94226l8.254578 33.01837l-132.07611 38.52231z" fill-rule="evenodd"/><path fill="#dd7e6b" d="m177.25722 259.13126l125.30794 -26.506592l-1.0117798 36.668213l-123.54062 27.958984z" fill-rule="evenodd"/><defs><linearGradient id="p.1" gradientUnits="userSpaceOnUse" gradientTransform="matrix(7.1025917370731415 0.0 0.0 7.1025917370731415 0.0 0.0)" spreadMethod="pad" x1="36.91122396382347" y1="23.416377612729487" x2="36.911197980738564" y2="30.518969349755103"><stop offset="0.0" stop-color="#dddddd"/><stop offset="1.0" stop-color="#919191"/></linearGradient></defs><path fill="url(#p.1)" d="m262.16534 180.07611l98.13913 -13.75853l73.37793 25.682419l-95.38843 24.763779z" fill-rule="evenodd"/><path fill="#ffffff" d="m179.0 258.5013l0 38.748016l13.501312 -3.2493286l-0.7506561 -38.750656z" fill-rule="evenodd"/><path fill="#efefef" d="m315.62466 229.62466l12.126007 4.3753357l0 36.874023l-14.375336 -5.624695z" fill-rule="evenodd"/><path fill="#434343" d="m179.50131 259.0l0 13.501312l11.498688 -2.5013123l0 -13.750671z" fill-rule="evenodd"/><path stroke="#434343" stroke-width="1.0" stroke-linejoin="round" stroke-linecap="butt" d="m179.50131 259.0l0 13.501312l11.498688 -2.5013123l0 -13.750671z" fill-rule="evenodd"/><path fill="#dd7e6b" d="m68.750656 166.0l0 20.249344l30.498688 16.251968l1.0 -23.0z" fill-rule="evenodd"/><path fill="#434343" d="m179.50131 278.5013l0 12.748016l12.249344 -3.2493286l0 -12.0z" fill-rule="evenodd"/><path stroke="#434343" stroke-width="1.0" stroke-linejoin="round" stroke-linecap="butt" d="m179.50131 278.5013l0 12.748016l12.249344 -3.2493286l0 -12.0z" fill-rule="evenodd"/><path fill="#ffffff" d="m195.25 254.25131l0 38.748016l13.501312 -3.2493286l-0.7506561 -38.750656z" fill-rule="evenodd"/><path fill="#d9d9d9" d="m525.40155 324.99475l110.98163 -29.351715l-14.677124 -22.013123l21.097107 -16.509186l166.92914 72.45932l-35.771667 9.170624l-75.20996 -22.929138l-72.456726 -3.6693115l-86.217834 26.59845z" fill-rule="evenodd"/><path fill="#e06666" d="m100.0 179.00066l32.501312 -5.249344l0.7480316 21.748032l-34.74803 7.0z" fill-rule="evenodd"/><path fill="#434343" d="m195.75131 255.75l0 13.501312l11.498688 -2.5013123l0 -13.750656z" fill-rule="evenodd"/><path stroke="#434343" stroke-width="1.0" stroke-linejoin="round" stroke-linecap="butt" d="m195.75131 255.75l0 13.501312l11.498688 -2.5013123l0 -13.750656z" fill-rule="evenodd"/><path fill="#cccccc" d="m69.25131 166.0l30.249344 13.249344l32.0 -5.4986877l-8.249344 -2.0l5.0 -13.750656z" fill-rule="evenodd"/><path fill="#dd7e6b" d="m154.50131 247.75066l0.24934387 37.498672l23.498688 12.0l-0.7480316 -38.498657z" fill-rule="evenodd"/><path fill="#dd7e6b" d="m140.68767 251.0l-23.0 -12.249344l-0.43832397 40.249344l23.501312 11.750671z" fill-rule="evenodd"/><path fill="#dd7e6b" d="m127.561676 232.12599l0.69029236 14.125977l19.748032 -3.7506561l-4.4986877 -11.249344z" fill-rule="evenodd"/><path fill="#e06666" d="m124.0 158.75066l18.501312 8.750656l-0.7506561 17.249344l-17.501312 -7.5013123z" fill-rule="evenodd"/><path fill="#e6b8af" d="m299.0 232.75066l17.0 -3.0l0 37.62468l-16.249329 4.1259766z" fill-rule="evenodd"/><path fill="#274e13" d="m157.75008 224.24843c4.1666565 -3.7082367 15.748901 -14.207352 22.498688 -15.498688c6.749771 -1.2913513 16.208221 4.9173126 18.0 7.750656c1.7917786 2.8333282 -0.08268738 6.8328857 -7.249344 9.249344c-7.1666718 2.4164429 -30.209106 5.4995575 -35.750656 5.249344c-5.541565 -0.25022888 -1.6653595 -3.0424347 2.5013123 -6.750656z" fill-rule="evenodd"/><path fill="#434343" d="m195.75131 275.2513l0 12.748016l12.249344 -3.2493286l0 -12.0z" fill-rule="evenodd"/><path stroke="#434343" stroke-width="1.0" stroke-linejoin="round" stroke-linecap="butt" d="m195.75131 275.2513l0 12.748016l12.249344 -3.2493286l0 -12.0z" fill-rule="evenodd"/><path fill="#d9d9d9" d="m281.5013 119.750656l-0.25198364 20.249344l70.0 16.750656l1.7506714 -18.0z" fill-rule="evenodd"/><path fill="#ea9999" d="m720.2493 239.75066l-4.7506714 59.249344l-84.0 -31.249329l3.0 -43.501328l-118.747986 -30.748032l-31.251984 11.748032l-26.748016 -12.748032l-35.0 4.4986877l-71.0 -21.249344l-0.24935913 -35.750656z" fill-rule="evenodd"/><path fill="#999999" d="m424.5013 197.24934l33.24936 -5.0l21.249329 10.501312l-30.498688 6.4986877l-27.251984 -11.249344z" fill-rule="evenodd"/><path fill="#dd7e6b" d="m133.75066 169.24934l108.249344 41.0l-47.0 8.750656l-62.249344 -29.0z" fill-rule="evenodd"/><path fill="#434343" d="m125.96063 183.17323l105.249344 44.1391l-4.7007904 3.438324l-101.69291 -42.76378z" fill-rule="evenodd"/><path fill="#d9d9d9" d="m453.24933 207.0l63.75067 -13.249344l117.75067 30.0l-75.0 20.750656z" fill-rule="evenodd"/><path fill="#dd7e6b" d="m132.38321 173.42783l108.112854 42.648285l-1.4908142 4.0131226l-108.112854 -42.879257z" fill-rule="evenodd"/><path fill="#f3f3f3" d="m149.12073 186.61154l76.70079 29.80841l-2.1784668 6.535431l-83.00525 -35.54068z" fill-rule="evenodd"/><path fill="#434343" d="m133.41446 176.1526l105.82153 41.61679l-4.2414703 4.1128693l-101.811035 -40.569565z" fill-rule="evenodd"/><path fill="#434343" d="m134.10236 169.64305l105.82153 41.61679l-4.2414703 4.112854l-101.811035 -40.56955z" fill-rule="evenodd"/><path fill="#38761d" d="m110.50223 175.50197c1.208664 -1.7502136 0.37532806 -3.0844269 3.0 -3.5013123c2.624672 -0.41688538 9.956696 1.3333282 12.748032 1.0c2.791336 -0.33332825 2.4164429 -3.3333282 4.0 -3.0c1.5835571 0.33332825 2.4177551 3.0831146 5.5013123 5.0c3.0835571 1.9168854 9.5 5.7510986 13.0 6.5013123c3.5 0.7502136 5.2917786 -4.1246643 8.0 -2.0c2.7082214 2.1246796 3.332901 11.664917 8.249344 14.748032c4.916443 3.0831146 19.207794 0.20866394 21.249344 3.7506561c2.041565 3.5419922 -3.2502136 12.542877 -9.0 17.501312c-5.7497864 4.9584503 -20.457123 12.458008 -25.498688 12.249344c-5.0415497 -0.20866394 -0.7090912 -11.251099 -4.750656 -13.501312c-4.0415497 -2.2502136 -13.082245 0.4580078 -19.498688 0c-6.4164505 -0.4580078 -14.208221 -1.2900238 -19.0 -2.7480316c-4.7917786 -1.4580078 -8.875328 -2.4164429 -9.750656 -6.0c-0.87532806 -3.5835571 4.0822372 -12.084427 4.4986877 -15.501312c0.4164505 -3.4168854 -2.5 -3.7502136 -2.0 -5.0c0.5 -1.2497864 3.4580078 -0.9155731 5.0 -2.4986877c1.5419922 -1.5831146 3.0433044 -5.2497864 4.2519684 -7.0z" fill-rule="evenodd"/><path fill="#274e13" d="m86.982506 187.41394c-6.8792725 -1.0699921 -16.51094 -4.127289 -19.262474 0c-2.7515259 4.127304 3.0590591 18.496506 2.7532806 24.763779c-0.30577087 6.267288 -5.5048065 10.241043 -4.587921 12.839905c0.9168854 2.5988617 3.3630753 3.8232727 10.089233 2.7532806c6.726166 -1.0699921 24.764221 -3.5170593 30.267723 -9.173233c5.5034943 -5.6561737 5.963249 -19.566483 2.7532806 -24.763779c-3.2099762 -5.197281 -15.133858 -5.3499603 -22.013123 -6.4199524z" fill-rule="evenodd"/><path fill="#434343" d="m140.50131 251.06299l0.31233215 39.687683l14.186356 -4.501343l-0.49868774 -38.687653z" fill-rule="evenodd"/><path fill="#e06666" d="m439.24933 275.75067l196.0 -52.24936l-4.498657 52.748016l-172.24936 49.501343l-19.75064 -24.0z" fill-rule="evenodd"/><path fill="#999999" d="m127.50131 232.0l7.249344 3.5013123l-17.249344 3.2493439l22.874023 12.498688l14.062988 -3.561676l22.81102 11.687668l124.50133 -26.62468l-59.000015 -22.750656z" fill-rule="evenodd"/><path fill="#dd7e6b" d="m339.0 143.25131l12.750671 -1.7506561l0.24932861 33.750656l-12.249329 1.7480316z" fill-rule="evenodd"/><path fill="#cccccc" d="m227.75066 159.75066l113.49867 -16.501312l-0.49865723 33.750656l-62.501343 10.0l-59.999985 -24.750656z" fill-rule="evenodd"/><path fill="#434343" d="m240.15224 166.54855l10.43306 -2.0656128l-0.5721741 5.963257l-9.629913 1.719162z" fill-rule="evenodd"/><path fill="#cccccc" d="m327.37534 235.0l111.87399 41.75067l126.252014 -34.75067l-152.00003 -48.375336l-94.75064 22.501328z" fill-rule="evenodd"/><path fill="#d9ead3" d="m323.6168 315.82153l88.968506 -7.3385925l-10.089233 27.51706l-50.446198 10.089233z" fill-rule="evenodd"/><path fill="#999999" d="m218.50131 161.50131l133.74802 -20.0l-41.24933 -11.0l-188.0 28.0l21.0 9.498688l61.249344 -11.498688z" fill-rule="evenodd"/><path fill="#274e13" d="m295.00037 182.9994c-5.08313 -0.54156494 -9.748932 -0.12423706 -8.498688 1.7506561c1.2502136 1.8748779 11.375305 7.7489014 16.0 9.498688c4.6246643 1.7497711 9.3315735 2.0415497 11.748016 1.0c2.4164429 -1.041565 5.958893 -5.207794 2.7506714 -7.249344c-3.2082214 -2.041565 -16.9169 -4.4584503 -22.0 -5.0z" fill-rule="evenodd"/><path fill="#dd7e6b" d="m505.62546 347.2511l0 22.996277l-110.87479 -47.33127l0 -21.414795z" fill-rule="evenodd"/><path fill="#666666" d="m301.5013 233.0l14.249359 -2.4986877l11.249329 4.4986877l60.0 -15.0l-181.24934 -64.49869l-73.50131 13.249344" fill-rule="evenodd"/><path fill="#6aa84f" d="m90.00017 214.75104c3.0 -3.0 9.166664 -12.126419 13.0 -12.501312c3.8333282 -0.3748932 5.9584427 8.96019 10.0 10.251968c4.0415573 1.2917786 10.790894 -3.8346405 14.249336 -2.5013123c3.4584427 1.3333282 8.709541 5.8762054 6.50132 10.501312c-2.2082214 4.625107 -15.209099 11.749344 -19.750656 17.249344c-4.5415573 5.5 -5.4986877 13.542435 -7.4986877 15.750656c-2.0 2.2082214 -1.5428696 -2.2095337 -4.5013123 -2.5013123c-2.9584427 -0.29177856 -9.290901 0.042434692 -13.249344 0.7506561c-3.9584427 0.70822144 -8.251099 3.6237946 -10.50132 3.4986877c-2.2502136 -0.12510681 -0.6666641 -1.0826721 -3.0 -4.249344c-2.3333282 -3.1666718 -10.833328 -11.375763 -11.0 -14.750656c-0.16666412 -3.3748932 8.083115 -2.8740082 10.0 -5.4986877c1.9168854 -2.6246643 -0.29045868 -8.49913 1.5013199 -10.249344c1.7917709 -1.7502136 6.8744507 0.70648193 9.249344 -0.25196838c2.3748856 -0.95843506 2.0 -2.4986877 5.0 -5.4986877z" fill-rule="evenodd"/><path fill="#434343" d="m316.04987 154.50919l8.829407 -2.0629883l1.2598267 8.826767l-8.711273 0.91864014z" fill-rule="evenodd"/><path fill="#f3f3f3" d="m562.08923 126.879265l-88.049866 20.178474l168.7638 44.026245l28.433044 -11.007874l-21.097107 -5.503937l-6.419922 -9.170593l-0.9160156 -11.923889z" fill-rule="evenodd"/><path fill="#e06666" d="m449.00034 123.37467l12.125977 -2.4986877l1.4986877 18.49868l-14.874023 -2.2493286z" fill-rule="evenodd"/><path fill="#274e13" d="m320.5023 177.75151c1.3753357 -1.5 7.41687 -0.33332825 10.0 0c2.5830994 0.3333435 4.915558 0.2082367 5.4986877 2.0c0.58309937 1.7917786 0.29177856 7.5839996 -2.0 8.750656c-2.2917786 1.1666718 -9.500885 0.041122437 -11.750671 -1.7506561c-2.2497864 -1.7917633 -3.123352 -7.5 -1.7480164 -9.0z" fill-rule="evenodd"/><path fill="#e06666" d="m403.75067 122.0l26.624664 -4.375328l-0.6246643 15.125984z" fill-rule="evenodd"/><path fill="#b6d7a8" d="m525.40155 103.031494l136.66144 -15.59317l-19.259827 69.708664l-102.72705 -32.10237z" fill-rule="evenodd"/><path fill="#dd7e6b" d="m429.24933 117.37533l-0.49865723 15.874016l20.498657 1.0l1.1260071 -12.12336z" fill-rule="evenodd"/><path fill="#434343" d="m468.53543 269.50394l21.32547 -5.0446167l-1.1470032 42.879272l-8.94223 2.2913208l-11.007874 -5.5013123z" fill-rule="evenodd"/><path fill="#dd7e6b" d="m423.62466 92.874016l-0.75064087 7.0l50.251953 14.750656l39.123352 -6.624672l2.6246948 15.624672l22.62732 -5.4986877l1.6246338 -21.750656l-59.251953 7.874016z" fill-rule="evenodd"/><path fill="#274e13" d="m287.1598 174.00014c-4.3377075 -2.082672 -5.9055176 -5.1010437 -6.3070984 -7.107605c-0.4015808 -2.0065613 3.2480164 -3.2882843 3.897644 -4.9317627c0.64959717 -1.6434784 -2.3888855 -4.1268616 0 -4.929138c2.3888855 -0.8022766 10.530609 1.0135651 14.333313 0.115493774c3.8027344 -0.89808655 5.521454 -4.6246796 8.482941 -5.503937c2.9615173 -0.87927246 7.604553 -1.2812805 9.286102 0.22833252c1.6815491 1.5096283 0.11505127 6.746292 0.8031616 8.829407c0.68807983 2.0831146 3.7650757 1.6627197 3.3254395 3.669281c-0.43963623 2.0065613 -3.612854 5.8670197 -5.963257 8.370087c-2.3503723 2.503067 -3.4960632 6.438324 -8.139099 6.6483c-4.643036 0.20996094 -15.381439 -3.3057861 -19.719147 -5.3884583z" fill-rule="evenodd"/><path fill="#f3f3f3" d="m329.12073 264.6378l106.85303 40.81366l-0.45669556 8.713898l-107.083984 -43.107605z" fill-rule="evenodd"/><path fill="#b6d7a8" d="m711.59326 96.61122c-11.006531 8.407692 -7.644348 33.47725 -7.338562 44.94226c0.30578613 11.464996 -2.7502441 15.898499 9.173218 23.847763c11.923462 7.9492493 41.272095 20.332016 62.36743 23.847763c21.095398 3.515747 52.128174 4.7375336 64.20471 -2.7532806c12.076599 -7.490814 8.560425 -27.822388 8.254639 -42.19159c-0.30578613 -14.369217 2.9041748 -35.157486 -10.089233 -44.02363c-12.993469 -8.866142 -46.776062 -8.561684 -67.8714 -9.173225c-21.095398 -0.6115494 -47.694214 -2.9037628 -58.700806 5.503937z" fill-rule="evenodd"/><path fill="#dd7e6b" d="m524.126 123.62467l10.498718 1.8766403l-1.2493896 20.249344l-9.375305 -1.6246643z" fill-rule="evenodd"/><path fill="#b7b7b7" d="m516.7507 127.0l8.123352 -2.4986877l9.375305 1.6246719l24.876648 -5.0l-22.750671 -7.125984l-21.249329 6.624672z" fill-rule="evenodd"/><path fill="#e06666" d="m477.0 117.0l36.24933 -7.750656l3.876648 17.624672l7.748047 -2.4986877l-0.12335205 19.49868l-34.624695 5.876648l-15.375305 -5.6246643z" fill-rule="evenodd"/><path fill="#dd7e6b" d="m406.24933 100.62467l-0.6246643 13.750656l54.126007 6.874016l2.0 15.876648l16.624664 3.4986725l0 -25.49868z" fill-rule="evenodd"/><path fill="#b6d7a8" d="m828.0761 197.50394l94.47247 -5.503937l-1.8346558 31.183731l-80.71393 19.262466z" fill-rule="evenodd"/><path fill="#b7b7b7" d="m281.5013 119.72168l76.302704 -9.971024l288.7033 72.6046l-84.560486 17.89685z" fill-rule="evenodd"/><path fill="#6aa84f" d="m280.5018 178.24956c0.5 -1.958435 8.874023 -6.7917786 12.498688 -7.0c3.6246643 -0.20822144 6.749359 5.3337708 9.249359 5.750656c2.5 0.41688538 2.0839844 -3.7908936 5.750641 -3.2493439c3.6666565 0.54156494 15.416016 4.082245 16.24936 6.4986877c0.833313 2.4164581 -5.5411377 7.541565 -11.249359 8.0c-5.7082214 0.45845032 -17.583557 -3.582672 -23.0 -5.249344c-5.416443 -1.6666565 -9.998688 -2.7922058 -9.498688 -4.750656z" fill-rule="evenodd"/><path fill="#38761d" d="m314.50238 187.50255c2.0 -1.4580078 8.416016 -2.4580078 12.249329 -2.0c3.8333435 0.45799255 8.958893 2.7064667 10.750671 4.7480316c1.7917786 2.0415497 0.7086487 5.87619 0 7.5013123c-0.7086487 1.6251068 -0.46020508 2.8328857 -4.2519836 2.2493439c-3.791748 -0.5835571 -15.373993 -3.6675415 -18.498688 -5.750656c-3.1246643 -2.0831146 -2.2493286 -5.290039 -0.24932861 -6.7480316z" fill-rule="evenodd"/><path fill="#38761d" d="m506.8745 360.75143c-0.9378967 1.0419922 -7.2716675 4.6666565 -6.7506714 7.0c0.5209961 2.333313 6.6264343 6.7917786 9.876648 7.0c3.2502441 0.20822144 5.22876 -4.541992 9.624695 -5.7506714c4.395874 -1.2086487 15.6675415 0.49868774 16.75061 -1.5013123c1.0831299 -2.0 -6.543274 -7.4361267 -10.251953 -10.498688c-3.7086792 -3.062561 -8.604553 -8.626404 -12.0 -7.876648c-3.3954468 0.7497864 -7.164459 10.4374695 -8.372681 12.375336c-1.2082214 1.9378967 2.0612183 -1.7900085 1.123352 -0.74801636z" fill-rule="evenodd"/><path fill="#b7b7b7" d="m502.1263 347.0l-15.251984 -7.7506714l-92.0 -37.624664l44.876648 -11.624664l101.24933 42.624664z" fill-rule="evenodd"/><path fill="#274e13" d="m525.8731 352.62564c-3.250183 3.9164429 -3.062561 3.7703247 -2.0 5.6246643c1.062561 1.8543396 6.146118 3.6469727 8.375305 5.5013123c2.229248 1.8543396 1.833374 4.374878 5.0 5.6246643c3.166687 1.2497864 10.58313 4.4155884 14.0 1.8740234c3.4169312 -2.541565 7.0429077 -13.8526 6.501343 -17.123352c-0.54156494 -3.2707825 -9.958862 -0.60543823 -9.750671 -2.5013123c0.20825195 -1.8959045 11.770813 -6.0617065 11.0 -8.874023c-0.77075195 -2.8123474 -10.103638 -9.64566 -15.624634 -8.0c-5.520996 1.6456604 -14.251099 13.95755 -17.501343 17.874023z" fill-rule="evenodd"/><path fill="#274e13" d="m509.74973 376.62405c-1.7707825 2.0415344 -4.6872253 1.0411072 -6.0 0.6246643c-1.3127747 -0.41644287 -0.29309082 -2.5818176 -1.876648 -3.123352c-1.5835571 -0.54156494 -5.6872253 0.8739929 -7.6246643 -0.12600708c-1.937439 -1.0 -4.583557 -4.499115 -4.0 -5.873993c0.5835571 -1.3749084 6.938751 -0.8753357 7.5013123 -2.3753357c0.56256104 -1.5 -5.313202 -5.207794 -4.1259766 -6.6246643c1.1872253 -1.4169006 7.7908936 -2.8556519 11.249329 -1.876648c3.458435 0.9790039 8.688568 4.5214233 9.501312 7.750641c0.8128052 3.2292175 -2.8538818 9.58313 -4.6246643 11.624695z" fill-rule="evenodd"/><path fill="#93c47d" d="m509.00092 358.62637c-3.0 -0.5831299 -9.397644 -2.2296753 -11.251953 -3.7506714c-1.8543396 -1.5209961 -0.12423706 -3.2502136 0.12597656 -5.375305c0.25021362 -2.125122 -0.66622925 -6.4169006 1.3753357 -7.3753357c2.0415344 -0.95843506 8.519684 2.2287903 10.873993 1.6246643c2.354309 -0.604126 1.3560791 -5.6662292 3.2519531 -5.2493286c1.895935 0.41687012 7.7279053 4.4382935 8.123413 7.750641c0.39544678 3.3123474 -3.6675415 10.060791 -5.7506714 12.123352c-2.08313 2.062561 -3.7480469 0.835083 -6.748047 0.25198364z" fill-rule="evenodd"/><path fill="#6aa84f" d="m518.2481 338.74988c-1.458435 1.3543396 -1.3328857 3.6246643 -1.2493286 6.6246643c0.08355713 3.0 0.35473633 8.812775 1.7506104 11.375336c1.395935 2.562561 5.437439 4.5 6.624695 4.0c1.1872559 -0.5 -1.7510986 -6.1456604 0.49865723 -7.0c2.249817 -0.8543396 10.604126 3.3950195 13.0 1.8740234c2.395935 -1.5209961 0 -8.666687 1.3753662 -11.0c1.3753052 -2.3333435 6.793091 -0.70822144 6.876648 -3.0c0.08355713 -2.2917786 -3.6045532 -9.3342285 -6.375366 -10.750671c-2.770752 -1.4164429 -7.7493286 1.1894226 -10.249329 2.2519836c-2.5 1.062561 -2.7086792 3.185913 -4.7506714 4.123352c-2.0419922 0.93743896 -6.0428467 0.14697266 -7.5012817 1.5013123z" fill-rule="evenodd"/><path fill="#e06666" d="m720.2493 239.75066l140.0 -36.0l-7.0 53.000015l-137.74799 42.24933z" fill-rule="evenodd"/><path fill="#dd7e6b" d="m403.24933 111.750656l-0.24932861 7.375328l14.501312 -0.25196838l8.0 -3.1233597l-19.251984 -4.249344z" fill-rule="evenodd"/><path fill="#b7b7b7" d="m561.7507 199.75066l158.0 44.498688l141.0 -40.498688l-147.50134 -35.501312z" fill-rule="evenodd"/><path fill="#cccccc" d="m394.5013 118.874016l27.0 -3.1233597l-18.251984 -4.0l11.126007 -1.6246719l45.125977 11.12336l-10.750641 2.1259842l-18.375336 -5.249344l-26.126007 4.0z" fill-rule="evenodd"/><path fill="#cccccc" d="m406.5013 100.50131l16.24936 -0.50131226l50.498657 13.249344l38.624695 -6.1233597l4.375305 1.8740158l-37.624664 8.0l-18.0 -2.1259842z" fill-rule="evenodd"/><path fill="#cccccc" d="m423.24933 92.750656l57.501343 12.874016l40.624634 -3.0l-43.125977 -10.498688z" fill-rule="evenodd"/><path fill="#efefef" d="m478.5013 92.0l0.37271118 -12.750656l43.375305 8.624672l0 15.0l-3.6246338 -0.8740158z" fill-rule="evenodd"/><path fill="#cccccc" d="m478.75067 79.249344l27.75064 -2.0l32.748016 6.375328l-17.249329 4.375328z" fill-rule="evenodd"/><path fill="#b7b7b7" d="m522.3753 102.874016l16.624695 -4.0l0.6246948 -15.249344l-17.624695 4.5013123z" fill-rule="evenodd"/><path fill="#e06666" d="m534.3753 125.999344l24.624695 -5.1233597l-1.8740234 19.000008l-23.750671 5.874008z" fill-rule="evenodd"/><path fill="#d9d9d9" d="m301.6063 273.6299l-27.51706 5.503937l-5.503937 7.3385925l-167.84514 38.52231l-110.06562 -22.931763l1.8346457 112.816284l572.3307 -4.5852966l-48.611572 -37.606323l-121.06824 -52.280823l-28.433075 10.089233l-67.87399 -35.769043l12.842499 -13.758514z" fill-rule="evenodd"/><path fill="#93c47d" d="m305.2732 280.0503c-2.7515259 -2.9041748 2.906372 -11.157471 6.422577 -13.75589c3.5161743 -2.5984192 12.22876 -3.2104187 14.67453 -1.8346558c2.4457397 1.3757629 -0.30578613 6.8792725 0 10.089233c0.30578613 3.2099915 5.35083 8.253723 1.8346558 9.170624c-3.5162048 0.9168701 -20.180237 -0.7651062 -22.931763 -3.6693115z" fill-rule="evenodd"/><path fill="#6aa84f" d="m326.3692 283.71838c-3.6688538 -2.5988464 -21.096222 -3.669281 -25.682404 -1.8346252c-4.5861816 1.8346252 -3.3635254 8.409454 -1.8346558 12.842499c1.5288696 4.433075 7.0332336 13.297485 11.007874 13.75592c3.97464 0.45843506 10.088379 -6.87796 12.839905 -11.005249c2.7515259 -4.127289 7.338135 -11.159668 3.669281 -13.758545z" fill-rule="evenodd"/><path fill="#274e13" d="m353.88452 291.97345c4.7388306 0 21.859558 -1.2230835 28.433075 0c6.5734863 1.223114 8.408997 3.975525 11.007874 7.3385925c2.5988464 3.3630676 10.547241 9.935272 4.5852966 12.839905c-5.9619446 2.9046326 -33.6308 3.8232727 -40.356964 4.587921" fill-rule="evenodd"/><path fill="#38761d" d="m347.46423 280.0503c-0.30575562 -4.7388306 -10.088806 -11.769897 -14.67453 -12.839874c-4.5857544 -1.0700073 -13.14566 1.6810913 -12.839905 6.4199524c0.30578613 4.7388306 10.088806 20.943115 14.67453 22.013123c4.5857544 1.0699768 13.145691 -10.85434 12.839905 -15.593201z" fill-rule="evenodd"/><path fill="#93c47d" d="m337.37534 289.22342c-3.057312 -5.197296 -13.297913 -5.0437317 -17.425201 -2.7506409c-4.127289 2.2930908 -7.3385925 12.381866 -7.3385925 16.509186c0 4.127289 3.058197 5.808838 7.3385925 8.254578c4.2803955 2.4457703 15.439636 10.088806 18.343842 6.4199524c2.9041748 -3.6688538 2.1386719 -23.235779 -0.91864014 -28.433075z" fill-rule="evenodd"/><path fill="#6aa84f" d="m343.79517 284.63824c3.6684265 -5.656189 12.534546 -4.434845 16.509186 -2.753296c3.97464 1.6815491 7.949707 9.632111 7.3385925 12.842529c-0.6111145 3.2104187 -10.241028 3.0568542 -11.005249 6.4199524c-0.7642212 3.3630676 9.477234 11.312775 6.4199524 13.758514c-3.057312 2.4457703 -21.553375 5.9606323 -24.763794 0.9160156c-3.2104187 -5.0446167 1.8328857 -25.527557 5.5013123 -31.183716z" fill-rule="evenodd"/><path fill="#b6d7a8" d="m878.52234 179.16011l-21.094543 -93.55381l-111.90021 -2.7532806l11.007874 -32.102364l119.236206 -10.089237l45.858276 6.4225693l-0.9160156 153.17061z" fill-rule="evenodd"/><path fill="#b6d7a8" d="m754.7008 410.29398l166.92914 -57.78479l-0.9160156 59.619415z" fill-rule="evenodd"/><path fill="#434343" d="m525.1477 262.85468l8.942261 -2.0656128l-0.6876831 21.097137l-9.173218 2.979004z" fill-rule="evenodd"/><path fill="#434343" d="m538.21594 259.6421l8.942261 -2.5223083l0 21.097107l-10.089233 1.8346558z" fill-rule="evenodd"/><path fill="#434343" d="m551.5152 255.97542l8.9422 -1.6062927l0 20.637802l-9.629883 2.7506409z" fill-rule="evenodd"/><path fill="#434343" d="m565.04535 252.9938l8.942261 -2.0630035l-0.6876831 20.635178l-8.942261 2.2939453z" fill-rule="evenodd"/><path fill="#434343" d="m578.1136 249.55286l9.401611 -2.0629883l-1.6036987 20.637787l-8.942261 2.7506714z" fill-rule="evenodd"/><path fill="#000000" d="m492.15222 263.7714l27.286072 -6.879242l0 47.236206l-27.973724 7.566925z" fill-rule="evenodd"/><path fill="#434343" d="m591.4128 246.8022l8.485596 -1.8346558l-1.1469727 19.262466l-9.170593 2.5223083z" fill-rule="evenodd"/><path fill="#434343" d="m435.2861 325.1076l-0.34384155 8.026245l3.32547 1.4908142l0.5721741 -8.713898z" fill-rule="evenodd"/><path fill="#434343" d="m441.59317 326.94226l-0.34384155 8.370087l4.126007 2.0629883l0.6876526 -8.026245z" fill-rule="evenodd"/><path fill="#434343" d="m449.38846 331.18372l-0.8031616 7.5669556l4.128601 1.7217712l1.0314941 -7.454071z" fill-rule="evenodd"/><path fill="#434343" d="m456.49606 333.59317l-0.9160156 8.367462l3.5538025 1.9501343l0.9160156 -8.598419z" fill-rule="evenodd"/><path fill="#434343" d="m463.14697 336.68765l-0.23095703 9.057739l3.669281 1.8346558l0.5747986 -8.829376z" fill-rule="evenodd"/><path fill="#434343" d="m470.2546 339.43832l-0.5722046 8.370087l4.356964 2.5223083l0.5721741 -8.942261z" fill-rule="evenodd"/><path fill="#f3f3f3" d="m210.81364 253.12599l-0.37532043 36.74803l12.37532 -3.561676l-0.6272888 -35.62468z" fill-rule="evenodd"/><path fill="#434343" d="m477.4777 342.7638l0 8.713898l4.241455 1.7191467l0.34384155 -8.254578z" fill-rule="evenodd"/><path fill="#434343" d="m485.50394 346.43307l-0.6876526 7.566925l4.3569336 2.1784668l1.0314941 -8.370056z" fill-rule="evenodd"/><path fill="#434343" d="m492.95538 348.95538l-0.5721741 9.173218l3.322815 1.8320312l1.2624817 -9.286102z" fill-rule="evenodd"/><path fill="#f3f3f3" d="m226.12599 249.75066l-0.3753357 35.87401l12.561676 -2.9370117l-1.0 -34.999985z" fill-rule="evenodd"/><path fill="#cccccc" d="m396.53543 303.78217l0 18.0l16.853027 6.535431l0 -17.54068z" fill-rule="evenodd"/><path fill="#434343" d="m210.45932 271.7953l12.152222 -2.6351929l0 12.496063l-12.039368 3.32547z" fill-rule="evenodd"/><path fill="#434343" d="m210.68767 252.81364l-0.06300354 13.186356l11.81366 -2.6876526l0 -13.125992z" fill-rule="evenodd"/><path fill="#434343" d="m226.0 249.68767l0 12.999985l11.687668 -2.1863403l-0.31233215 -13.0z" fill-rule="evenodd"/><path fill="#ffffff" d="m241.87401 247.24934l0 34.687668l11.063004 -2.6246643l-0.24934387 -34.312347z" fill-rule="evenodd"/><path fill="#434343" d="m226.0 269.12598l0.06298828 12.060364l12.123367 -2.8110046l-0.24934387 -11.438324z" fill-rule="evenodd"/><path fill="#434343" d="m241.68767 247.24934l0.12597656 12.438309l10.874023 -2.0l0.24934387 -13.249329z" fill-rule="evenodd"/><path fill="#ffffff" d="m256.5035 244.12599l-0.06668091 34.435684l10.650696 -2.3753357l0.6611328 -34.498672z" fill-rule="evenodd"/><path fill="#434343" d="m241.75066 265.87402l11.0 -2.4986877l-0.1889801 11.873993l-10.81102 2.564331z" fill-rule="evenodd"/><path fill="#434343" d="m256.5013 244.06299l0 12.0l11.123352 -1.8136444l0 -12.874008z" fill-rule="evenodd"/><path fill="#f3f3f3" d="m271.937 240.75066l10.876648 -2.1259918l-0.43832397 34.687683l-11.438324 2.3753052z" fill-rule="evenodd"/><path fill="#434343" d="m272.18634 240.62466l-0.49868774 12.5013275l10.81366 -2.1259918l0.3123474 -12.312332z" fill-rule="evenodd"/><path fill="#f3f3f3" d="m286.56168 237.93701l10.375336 -2.0630035l-0.49868774 33.93965l-10.188995 2.3726807z" fill-rule="evenodd"/><path fill="#434343" d="m286.62466 237.87401l-0.06298828 13.0l10.125977 -2.4986725l0.18637085 -12.561691z" fill-rule="evenodd"/><path fill="#434343" d="m256.68765 262.87402l10.438324 -2.2493591l-0.018371582 11.312347l-10.545929 2.1889648z" fill-rule="evenodd"/><path fill="#434343" d="m271.24933 259.43832l-0.06298828 12.375336l11.188995 -2.438324l0.12597656 -12.312347z" fill-rule="evenodd"/><path fill="#434343" d="m286.37534 256.62466l10.249329 -2.123352l-0.06298828 12.060364l-10.18634 2.5013123z" fill-rule="evenodd"/><path fill="#434343" d="m252.41995 163.91077l0.115478516 8.713898l11.120728 -1.8346405l0 -8.485565z" fill-rule="evenodd"/><path fill="#434343" d="m266.063 161.84776l0.34384155 8.826782l12.2677 -1.719162l-0.45669556 -8.482941z" fill-rule="evenodd"/><path fill="#434343" d="m327.17322 151.75853l10.433075 -1.4908142l0.22836304 9.514435l-9.973755 1.8346405z" fill-rule="evenodd"/><path fill="#434343" d="m352.3937 147.40158l3.097107 1.2598419l-0.6876526 7.566925l-2.5223083 -0.68766785z" fill-rule="evenodd"/><path fill="#434343" d="m361.6824 150.26772l2.7506714 0.68766785l-0.115478516 8.254593l-2.979004 -1.4908142z" fill-rule="evenodd"/><path fill="#434343" d="m359.73227 168.61154l4.816284 2.4068298l-0.23095703 5.847763l-5.5013123 -2.1784668z" fill-rule="evenodd"/><path fill="#434343" d="m420.61154 169.18373l3.0944824 0.45932007l-0.6876526 6.7637787l-3.669281 -0.8005371z" fill-rule="evenodd"/><path fill="#434343" d="m430.47244 172.04987l3.3228455 0.5747986l-0.34384155 6.8792725l-3.669281 -1.0314941z" fill-rule="evenodd"/><path fill="#274e13" d="m383.1204 160.3577c2.9619446 -2.445755 5.904663 -4.01355 7.5669556 -2.6377869c1.6622925 1.3757629 0.5533447 8.694656 2.4067993 10.89238c1.8534546 2.1977234 8.790039 0.1539917 8.713928 2.2939606c-0.07611084 2.1399841 -6.514435 7.909012 -9.170593 10.545944c-2.656189 2.636917 -3.6898804 5.084427 -6.7664185 5.275589c-3.076538 0.19116211 -10.412964 -2.924759 -11.692902 -4.1286163c-1.2799683 -1.2038422 4.2235107 -1.393692 4.0131226 -3.0944824c-0.2104187 -1.7007904 -6.0971375 -3.9190674 -5.2756042 -7.1102448c0.8215332 -3.191162 7.242798 -9.590988 10.204712 -12.036743z" fill-rule="evenodd"/><path fill="#434343" d="m427.95013 188.10236l5.272949 1.2598419l-0.22833252 6.1916046l-6.8792725 0.34384155z" fill-rule="evenodd"/><path fill="#434343" d="m418.08923 185.23622l7.3385925 2.0629883l-0.34384155 8.713913l-7.9107666 -0.115478516z" fill-rule="evenodd"/><path fill="#38761d" d="m391.8346 180.07513c1.7581177 -1.7773438 1.3762207 -4.490814 3.6693115 -4.356964c2.2930908 0.13386536 7.79657 2.8862762 10.089233 5.1601105c2.2926636 2.2738342 3.112854 6.3429565 3.6666565 8.482941c0.5538025 2.1399841 3.7069092 4.8534546 -0.34381104 4.356949c-4.0507507 -0.49649048 -21.113739 -5.0621185 -23.960632 -7.3359528c-2.8468933 -2.2738342 5.121155 -4.5297394 6.879242 -6.307083z" fill-rule="evenodd"/><path fill="#38761d" d="m367.75836 180.99547c-3.3442688 -1.5288849 -2.160553 -6.1159363 -1.6062927 -8.829407c0.55422974 -2.7134705 4.7598267 -5.292206 4.9317627 -7.4514465c0.17190552 -2.1592255 -4.492584 -3.210846 -3.9002686 -5.503937c0.5923157 -2.2930756 4.129059 -8.197281 7.454071 -8.254593c3.3250122 -0.057296753 12.477264 4.643051 12.496063 7.9107666c0.018798828 3.2677155 -12.23053 7.9501343 -12.383209 11.695541c-0.15267944 3.745407 12.632538 9.038055 11.467194 10.776901c-1.1653442 1.7388458 -15.115051 1.1850433 -18.45932 -0.3438263z" fill-rule="evenodd"/><path fill="#6aa84f" d="m391.37646 162.41977c2.1780396 -0.45887756 5.9615173 -0.82196045 7.9107666 -1.4908142c1.9492493 -0.66885376 2.026703 -3.3250122 3.78479 -2.5223083c1.7580872 0.8027191 6.3626404 4.5297546 6.7637634 7.3385925c0.40115356 2.8088226 -3.2103882 6.839447 -4.3569336 9.514435c-1.1465454 2.6749725 -0.2677307 6.4588776 -2.5223083 6.535431c-2.2546082 0.076553345 -8.215668 -3.057312 -11.005249 -6.076126c-2.7896118 -3.0187988 -5.636505 -9.820206 -5.7323 -12.036743c-0.09579468 -2.2165375 2.9794312 -0.80358887 5.1574707 -1.2624664z" fill-rule="evenodd"/><path fill="#434343" d="m739.1076 249.78215l32.102356 -9.1706085l0.91864014 20.178497l-33.020996 7.338562z" fill-rule="evenodd"/><path fill="#dd7e6b" d="m280.5013 195.37534l-0.9081421 13.821518l40.908142 15.616791l0.13647461 -15.157471z" fill-rule="evenodd"/><path fill="#e06666" d="m320.56168 209.75066l21.398956 -5.367447l0.23095703 15.362198l-21.690277 5.128601z" fill-rule="evenodd"/><path fill="#b7b7b7" d="m280.5092 195.43832l20.86615 -5.5013123l40.624664 14.564301l-21.59317 5.383209z" fill-rule="evenodd"/><g filter="url(#shadowFilter-p.2)"><use xlink:href="#p.2" transform="matrix(1.0 0.0 0.0 1.0 0.0 2.0)"/></g><defs><filter id="shadowFilter-p.2" filterUnits="userSpaceOnUse"><feGaussianBlur in="SourceAlpha" stdDeviation="2.0" result="blur"/><feComponentTransfer in="blur" color-interpolation-filters="sRGB"><feFuncR type="linear" slope="0" intercept="0.0"/><feFuncG type="linear" slope="0" intercept="0.0"/><feFuncB type="linear" slope="0" intercept="0.0"/><feFuncA type="linear" slope="0.5" intercept="0"/></feComponentTransfer></filter></defs><g id="p.2"><path fill="#ffe599" d="m481.3753 82.43098l0 0c0 7.210144 -5.739197 13.055122 -12.818878 13.055122q-6.4094543 0 -12.818909 0q0 -6.5275574 0 -13.055122l0 0c0 -7.2101364 5.7392273 -13.055115 12.818909 -13.055115l0 0c7.0796814 0 12.818878 5.8449783 12.818878 13.055115z" fill-rule="evenodd"/><path stroke="#000000" stroke-width="1.0" stroke-linejoin="round" stroke-linecap="butt" d="m481.3753 82.43098l0 0c0 7.210144 -5.739197 13.055122 -12.818878 13.055122q-6.4094543 0 -12.818909 0q0 -6.5275574 0 -13.055122l0 0c0 -7.2101364 5.7392273 -13.055115 12.818909 -13.055115l0 0c7.0796814 0 12.818878 5.8449783 12.818878 13.055115z" fill-rule="evenodd"/></g><path fill="#000000" fill-opacity="0.0" d="m455.45673 73.17585l25.039368 0l0 17.763786l-25.039368 0z" fill-rule="evenodd"/><path fill="#000000" d="m468.33173 86.84212q-0.875 0 -1.578125 -0.421875q-0.703125 -0.421875 -1.109375 -1.140625q-0.390625 -0.734375 -0.390625 -1.640625q0 -0.875 0.390625 -1.5625q0.40625 -0.703125 1.109375 -1.109375q0.703125 -0.40625 1.578125 -0.40625q0.890625 0 1.578125 0.40625q0.6875 0.40625 1.09375 1.109375q0.40625 0.6875 0.390625 1.5625q0 0.90625 -0.40625 1.640625q-0.40625 0.71875 -1.09375 1.140625q-0.6875 0.421875 -1.5625 0.421875zm0 -1.21875q0.5 0 0.890625 -0.265625q0.390625 -0.265625 0.609375 -0.71875q0.234375 -0.453125 0.234375 -1.0q0.015625 -0.53125 -0.21875 -0.9375q-0.21875 -0.421875 -0.609375 -0.671875q-0.390625 -0.25 -0.90625 -0.25q-0.484375 0 -0.890625 0.25q-0.40625 0.25 -0.640625 0.671875q-0.21875 0.40625 -0.21875 0.9375q0 0.546875 0.21875 1.0q0.234375 0.453125 0.625 0.71875q0.40625 0.265625 0.90625 0.265625zm0 -4.078125q-0.75 0 -1.34375 -0.328125q-0.59375 -0.34375 -0.953125 -0.90625q-0.34375 -0.578125 -0.34375 -1.296875q0 -0.75 0.34375 -1.34375q0.359375 -0.59375 0.953125 -0.9375q0.59375 -0.359375 1.34375 -0.359375q0.765625 -0.015625 1.359375 0.328125q0.59375 0.34375 0.9375 0.953125q0.34375 0.59375 0.328125 1.359375q0 0.71875 -0.34375 1.296875q-0.34375 0.5625 -0.9375 0.90625q-0.59375 0.328125 -1.34375 0.328125zm0 -1.109375q0.375 0 0.671875 -0.203125q0.296875 -0.203125 0.46875 -0.53125q0.171875 -0.328125 0.171875 -0.71875q0.015625 -0.40625 -0.171875 -0.703125q-0.171875 -0.3125 -0.46875 -0.484375q-0.28125 -0.1875 -0.671875 -0.1875q-0.5625 0 -0.9375 0.390625q-0.359375 0.375 -0.375 0.984375q-0.015625 0.59375 0.359375 1.03125q0.390625 0.421875 0.953125 0.421875z" fill-rule="nonzero"/><g filter="url(#shadowFilter-p.3)"><use xlink:href="#p.3" transform="matrix(1.0 0.0 0.0 1.0 0.0 2.0)"/></g><defs><filter id="shadowFilter-p.3" filterUnits="userSpaceOnUse"><feGaussianBlur in="SourceAlpha" stdDeviation="2.0" result="blur"/><feComponentTransfer in="blur" color-interpolation-filters="sRGB"><feFuncR type="linear" slope="0" intercept="0.0"/><feFuncG type="linear" slope="0" intercept="0.0"/><feFuncB type="linear" slope="0" intercept="0.0"/><feFuncA type="linear" slope="0.5" intercept="0"/></feComponentTransfer></filter></defs><g id="p.3"><path fill="#ffe599" d="m457.3753 122.43098l0 0c0 7.2101517 -5.739197 13.055122 -12.818878 13.055122q-6.4094543 0 -12.818909 0q0 -6.5275574 0 -13.055122l0 0c0 -7.2101364 5.7392273 -13.055115 12.818909 -13.055115l0 0c7.0796814 0 12.818878 5.8449783 12.818878 13.055115z" fill-rule="evenodd"/><path stroke="#000000" stroke-width="1.0" stroke-linejoin="round" stroke-linecap="butt" d="m457.3753 122.43098l0 0c0 7.2101517 -5.739197 13.055122 -12.818878 13.055122q-6.4094543 0 -12.818909 0q0 -6.5275574 0 -13.055122l0 0c0 -7.2101364 5.7392273 -13.055115 12.818909 -13.055115l0 0c7.0796814 0 12.818878 5.8449783 12.818878 13.055115z" fill-rule="evenodd"/></g><path fill="#000000" fill-opacity="0.0" d="m431.45673 113.17585l25.039368 0l0 17.763786l-25.039368 0z" fill-rule="evenodd"/><path fill="#000000" d="m442.36298 126.85774q-0.265625 0 -0.46875 -0.203125q-0.203125 -0.203125 -0.203125 -0.484375q0 -0.09375 0.03125 -0.1875q0.046875 -0.109375 0.09375 -0.234375l3.828125 -7.9375l-4.046875 0q-0.296875 0 -0.5 -0.1875q-0.1875 -0.203125 -0.1875 -0.5q0 -0.28125 0.1875 -0.46875q0.203125 -0.203125 0.5 -0.203125l5.0625 0q0.28125 0 0.484375 0.203125q0.203125 0.1875 0.203125 0.46875q0 0.09375 -0.03125 0.1875q-0.015625 0.078125 -0.0625 0.171875l-4.265625 9.0q-0.21875 0.375 -0.625 0.375z" fill-rule="nonzero"/><g filter="url(#shadowFilter-p.4)"><use xlink:href="#p.4" transform="matrix(1.0 0.0 0.0 1.0 0.0 2.0)"/></g><defs><filter id="shadowFilter-p.4" filterUnits="userSpaceOnUse"><feGaussianBlur in="SourceAlpha" stdDeviation="2.0" result="blur"/><feComponentTransfer in="blur" color-interpolation-filters="sRGB"><feFuncR type="linear" slope="0" intercept="0.0"/><feFuncG type="linear" slope="0" intercept="0.0"/><feFuncB type="linear" slope="0" intercept="0.0"/><feFuncA type="linear" slope="0.5" intercept="0"/></feComponentTransfer></filter></defs><g id="p.4"><path fill="#ffe599" d="m377.3753 122.43098l0 0c0 7.2101517 -5.739197 13.055122 -12.818878 13.055122q-6.4094543 0 -12.818909 0q0 -6.5275574 0 -13.055122l0 0c0 -7.2101364 5.7392273 -13.055115 12.818909 -13.055115l0 0c7.0796814 0 12.818878 5.8449783 12.818878 13.055115z" fill-rule="evenodd"/><path stroke="#000000" stroke-width="1.0" stroke-linejoin="round" stroke-linecap="butt" d="m377.3753 122.43098l0 0c0 7.2101517 -5.739197 13.055122 -12.818878 13.055122q-6.4094543 0 -12.818909 0q0 -6.5275574 0 -13.055122l0 0c0 -7.2101364 5.7392273 -13.055115 12.818909 -13.055115l0 0c7.0796814 0 12.818878 5.8449783 12.818878 13.055115z" fill-rule="evenodd"/></g><path fill="#000000" fill-opacity="0.0" d="m351.45673 113.17585l25.039368 0l0 17.763786l-25.039368 0z" fill-rule="evenodd"/><path fill="#000000" d="m364.47235 126.85774q-0.921875 0 -1.640625 -0.40625q-0.703125 -0.40625 -1.109375 -1.109375q-0.40625 -0.71875 -0.40625 -1.640625q0 -0.9375 0.40625 -1.640625q0.40625 -0.71875 1.109375 -1.125q0.71875 -0.40625 1.640625 -0.40625q0.921875 0 1.625 0.40625q0.703125 0.40625 1.09375 1.125q0.40625 0.703125 0.40625 1.640625q0 0.921875 -0.40625 1.640625q-0.390625 0.703125 -1.09375 1.109375q-0.703125 0.40625 -1.625 0.40625zm-0.015625 -1.203125q0.546875 0 0.96875 -0.234375q0.421875 -0.25 0.65625 -0.6875q0.234375 -0.453125 0.234375 -1.03125q0 -0.59375 -0.234375 -1.03125q-0.234375 -0.4375 -0.65625 -0.6875q-0.421875 -0.25 -0.96875 -0.25q-0.546875 0 -0.96875 0.25q-0.421875 0.25 -0.65625 0.6875q-0.234375 0.4375 -0.234375 1.03125q0 0.578125 0.234375 1.03125q0.234375 0.4375 0.65625 0.6875q0.421875 0.234375 0.96875 0.234375zm-2.6875 -3.65625l3.078125 -5.15625q0.25 -0.375 0.625 -0.375q0.28125 0 0.46875 0.15625q0.1875 0.15625 0.21875 0.40625q0.046875 0.234375 -0.09375 0.46875l-1.890625 3.15625l-2.40625 1.34375z" fill-rule="nonzero"/><g filter="url(#shadowFilter-p.5)"><use xlink:href="#p.5" transform="matrix(1.0 0.0 0.0 1.0 0.0 2.0)"/></g><defs><filter id="shadowFilter-p.5" filterUnits="userSpaceOnUse"><feGaussianBlur in="SourceAlpha" stdDeviation="2.0" result="blur"/><feComponentTransfer in="blur" color-interpolation-filters="sRGB"><feFuncR type="linear" slope="0" intercept="0.0"/><feFuncG type="linear" slope="0" intercept="0.0"/><feFuncB type="linear" slope="0" intercept="0.0"/><feFuncA type="linear" slope="0.5" intercept="0"/></feComponentTransfer></filter></defs><g id="p.5"><path fill="#ffe599" d="m265.3753 130.43098l0 0c0 7.210144 -5.739197 13.055115 -12.818878 13.055115q-6.4094543 0 -12.818909 0q0 -6.5275574 0 -13.055115l0 0c0 -7.210144 5.7392273 -13.055122 12.818909 -13.055122l0 0c7.0796814 0 12.818878 5.8449783 12.818878 13.055122z" fill-rule="evenodd"/><path stroke="#000000" stroke-width="1.0" stroke-linejoin="round" stroke-linecap="butt" d="m265.3753 130.43098l0 0c0 7.210144 -5.739197 13.055115 -12.818878 13.055115q-6.4094543 0 -12.818909 0q0 -6.5275574 0 -13.055115l0 0c0 -7.210144 5.7392273 -13.055122 12.818909 -13.055122l0 0c7.0796814 0 12.818878 5.8449783 12.818878 13.055122z" fill-rule="evenodd"/></g><path fill="#000000" fill-opacity="0.0" d="m239.45674 121.17585l25.039352 0l0 17.763786l-25.039352 0z" fill-rule="evenodd"/><path fill="#000000" d="m252.70674 134.85774q-0.953125 0 -1.71875 -0.4375q-0.765625 -0.453125 -1.21875 -1.21875q-0.453125 -0.78125 -0.453125 -1.75q0 -0.28125 0.1875 -0.46875q0.1875 -0.203125 0.484375 -0.203125q0.296875 0 0.484375 0.203125q0.203125 0.1875 0.203125 0.46875q0 0.578125 0.265625 1.046875q0.28125 0.46875 0.734375 0.734375q0.453125 0.265625 1.03125 0.265625q0.59375 0 1.046875 -0.265625q0.453125 -0.265625 0.71875 -0.734375q0.28125 -0.46875 0.28125 -1.046875q0 -0.578125 -0.28125 -1.03125q-0.265625 -0.46875 -0.71875 -0.734375q-0.453125 -0.265625 -1.046875 -0.265625l-2.21875 0q-0.296875 0 -0.484375 -0.1875q-0.1875 -0.203125 -0.1875 -0.5l0 -3.59375q0 -0.296875 0.1875 -0.484375q0.1875 -0.203125 0.484375 -0.203125l4.453125 0q0.265625 0 0.46875 0.203125q0.203125 0.203125 0.203125 0.484375q0 0.265625 -0.203125 0.46875q-0.1875 0.203125 -0.46875 0.203125l-3.78125 0l0 2.25l1.546875 0q0.96875 0 1.734375 0.453125q0.765625 0.4375 1.21875 1.203125q0.45310974 0.765625 0.45310974 1.734375q0 0.96875 -0.45310974 1.75q-0.453125 0.765625 -1.21875 1.21875q-0.765625 0.4375 -1.734375 0.4375z" fill-rule="nonzero"/><g filter="url(#shadowFilter-p.6)"><use xlink:href="#p.6" transform="matrix(1.0 0.0 0.0 1.0 0.0 2.0)"/></g><defs><filter id="shadowFilter-p.6" filterUnits="userSpaceOnUse"><feGaussianBlur in="SourceAlpha" stdDeviation="2.0" result="blur"/><feComponentTransfer in="blur" color-interpolation-filters="sRGB"><feFuncR type="linear" slope="0" intercept="0.0"/><feFuncG type="linear" slope="0" intercept="0.0"/><feFuncB type="linear" slope="0" intercept="0.0"/><feFuncA type="linear" slope="0.5" intercept="0"/></feComponentTransfer></filter></defs><g id="p.6"><path fill="#ffe599" d="m537.3753 122.43098l0 0c0 7.2101517 -5.739197 13.055122 -12.818909 13.055122q-6.409424 0 -12.818878 0q0 -6.5275574 0 -13.055122l0 0c0 -7.2101364 5.7392273 -13.055115 12.818878 -13.055115l0 0c7.079712 0 12.818909 5.8449783 12.818909 13.055115z" fill-rule="evenodd"/><path stroke="#000000" stroke-width="1.0" stroke-linejoin="round" stroke-linecap="butt" d="m537.3753 122.43098l0 0c0 7.2101517 -5.739197 13.055122 -12.818909 13.055122q-6.409424 0 -12.818878 0q0 -6.5275574 0 -13.055122l0 0c0 -7.2101364 5.7392273 -13.055115 12.818878 -13.055115l0 0c7.079712 0 12.818909 5.8449783 12.818909 13.055115z" fill-rule="evenodd"/></g><path fill="#000000" fill-opacity="0.0" d="m511.45673 113.17585l25.039368 0l0 17.763786l-25.039368 0z" fill-rule="evenodd"/><path fill="#000000" d="m524.4411 116.85774q0.921875 0 1.625 0.40625q0.71875 0.40625 1.125 1.125q0.40625 0.703125 0.40625 1.625q0 0.9375 -0.40625 1.65625q-0.40625 0.703125 -1.125 1.109375q-0.703125 0.40625 -1.625 0.40625q-0.921875 0 -1.625 -0.40625q-0.703125 -0.40625 -1.109375 -1.109375q-0.390625 -0.71875 -0.390625 -1.65625q0 -0.921875 0.390625 -1.625q0.40625 -0.71875 1.109375 -1.125q0.703125 -0.40625 1.625 -0.40625zm0.015625 1.203125q-0.546875 0 -0.96875 0.25q-0.421875 0.234375 -0.65625 0.6875q-0.234375 0.4375 -0.234375 1.015625q0 0.59375 0.234375 1.03125q0.234375 0.4375 0.65625 0.6875q0.421875 0.25 0.96875 0.25q0.546875 0 0.96875 -0.25q0.421875 -0.25 0.65625 -0.6875q0.234375 -0.4375 0.234375 -1.03125q0 -0.578125 -0.234375 -1.015625q-0.234375 -0.453125 -0.65625 -0.6875q-0.421875 -0.25 -0.96875 -0.25zm2.6875 3.65625l-3.078125 5.15625q-0.25 0.375 -0.625 0.375q-0.28125 0 -0.46875 -0.15625q-0.1875 -0.15625 -0.234375 -0.390625q-0.03125 -0.25 0.109375 -0.484375l1.890625 -3.15625l2.40625 -1.34375z" fill-rule="nonzero"/><g filter="url(#shadowFilter-p.7)"><use xlink:href="#p.7" transform="matrix(1.0 0.0 0.0 1.0 0.0 2.0)"/></g><defs><filter id="shadowFilter-p.7" filterUnits="userSpaceOnUse"><feGaussianBlur in="SourceAlpha" stdDeviation="2.0" result="blur"/><feComponentTransfer in="blur" color-interpolation-filters="sRGB"><feFuncR type="linear" slope="0" intercept="0.0"/><feFuncG type="linear" slope="0" intercept="0.0"/><feFuncB type="linear" slope="0" intercept="0.0"/><feFuncA type="linear" slope="0.5" intercept="0"/></feComponentTransfer></filter></defs><g id="p.7"><path fill="#ffe599" d="m761.3753 202.43098l0 0c0 7.210144 -5.739197 13.055115 -12.818909 13.055115q-6.409424 0 -12.818848 0q0 -6.5275574 0 -13.055115l0 0c0 -7.210144 5.739197 -13.05513 12.818848 -13.05513l0 0c7.079712 0 12.818909 5.844986 12.818909 13.05513z" fill-rule="evenodd"/><path stroke="#000000" stroke-width="1.0" stroke-linejoin="round" stroke-linecap="butt" d="m761.3753 202.43098l0 0c0 7.210144 -5.739197 13.055115 -12.818909 13.055115q-6.409424 0 -12.818848 0q0 -6.5275574 0 -13.055115l0 0c0 -7.210144 5.739197 -13.05513 12.818848 -13.05513l0 0c7.079712 0 12.818909 5.844986 12.818909 13.05513z" fill-rule="evenodd"/></g><path fill="#000000" fill-opacity="0.0" d="m735.4567 193.17586l25.039368 0l0 17.763779l-25.039368 0z" fill-rule="evenodd"/><path fill="#000000" d="m745.9572 206.85774q-0.265625 0 -0.46875 -0.203125q-0.203125 -0.203125 -0.203125 -0.484375l0 -8.125l-0.96875 0.421875q-0.234375 0.09375 -0.4375 0.09375q-0.28125 0 -0.484375 -0.1875q-0.1875 -0.1875 -0.1875 -0.484375q0 -0.21875 0.109375 -0.390625q0.109375 -0.171875 0.328125 -0.25l2.078125 -0.75q0.0625 -0.015625 0.125 -0.03125q0.078125 -0.015625 0.125 -0.015625q0.3125 0 0.484375 0.203125q0.1875 0.1875 0.1875 0.484375l0 9.03125q0 0.28125 -0.203125 0.484375q-0.203125 0.203125 -0.484375 0.203125zm5.237976 0q-0.265625 0 -0.46875 -0.203125q-0.203125 -0.203125 -0.203125 -0.484375l0 -8.125l-0.96875 0.421875q-0.234375 0.09375 -0.4375 0.09375q-0.28125 0 -0.484375 -0.1875q-0.1875 -0.1875 -0.1875 -0.484375q0 -0.21875 0.109375 -0.390625q0.109375 -0.171875 0.328125 -0.25l2.078125 -0.75q0.0625 -0.015625 0.125 -0.03125q0.078125 -0.015625 0.125 -0.015625q0.3125 0 0.484375 0.203125q0.1875 0.1875 0.1875 0.484375l0 9.03125q0 0.28125 -0.203125 0.484375q-0.203125 0.203125 -0.484375 0.203125z" fill-rule="nonzero"/><g filter="url(#shadowFilter-p.8)"><use xlink:href="#p.8" transform="matrix(1.0 0.0 0.0 1.0 0.0 2.0)"/></g><defs><filter id="shadowFilter-p.8" filterUnits="userSpaceOnUse"><feGaussianBlur in="SourceAlpha" stdDeviation="2.0" result="blur"/><feComponentTransfer in="blur" color-interpolation-filters="sRGB"><feFuncR type="linear" slope="0" intercept="0.0"/><feFuncG type="linear" slope="0" intercept="0.0"/><feFuncB type="linear" slope="0" intercept="0.0"/><feFuncA type="linear" slope="0.5" intercept="0"/></feComponentTransfer></filter></defs><g id="p.8"><path fill="#ffe599" d="m209.37532 218.43098l0 0c0 7.210144 -5.739212 13.055115 -12.818893 13.055115q-6.4094543 0 -12.818909 0q0 -6.5275574 0 -13.055115l0 0c0 -7.210144 5.7392273 -13.05513 12.818909 -13.05513l0 0c7.0796814 0 12.818893 5.844986 12.818893 13.05513z" fill-rule="evenodd"/><path stroke="#000000" stroke-width="1.0" stroke-linejoin="round" stroke-linecap="butt" d="m209.37532 218.43098l0 0c0 7.210144 -5.739212 13.055115 -12.818893 13.055115q-6.4094543 0 -12.818909 0q0 -6.5275574 0 -13.055115l0 0c0 -7.210144 5.7392273 -13.05513 12.818909 -13.05513l0 0c7.0796814 0 12.818893 5.844986 12.818893 13.05513z" fill-rule="evenodd"/></g><path fill="#000000" fill-opacity="0.0" d="m183.45674 209.17586l25.039368 0l0 17.763779l-25.039368 0z" fill-rule="evenodd"/><path fill="#000000" d="m194.00362 222.85774q-0.296875 0 -0.5 -0.203125q-0.1875 -0.203125 -0.1875 -0.484375q0 -0.28125 0.1875 -0.46875l3.796875 -4.421875q0.390625 -0.46875 0.609375 -0.875q0.21875 -0.421875 0.21875 -0.796875q0 -0.59375 -0.203125 -1.015625q-0.1875 -0.421875 -0.5625 -0.65625q-0.375 -0.234375 -0.890625 -0.234375q-0.515625 0 -0.921875 0.265625q-0.40625 0.25 -0.640625 0.6875q-0.234375 0.4375 -0.234375 0.953125q0 0.265625 -0.1875 0.46875q-0.1875 0.203125 -0.484375 0.203125q-0.28125 0 -0.484375 -0.203125q-0.203125 -0.203125 -0.203125 -0.46875q0 -0.90625 0.40625 -1.609375q0.421875 -0.71875 1.140625 -1.125q0.71875 -0.421875 1.609375 -0.421875q0.90625 0 1.5625 0.390625q0.671875 0.375 1.03125 1.09375q0.375 0.703125 0.375 1.671875q0 0.421875 -0.1875 0.875q-0.171875 0.4375 -0.453125 0.84375q-0.265625 0.390625 -0.546875 0.703125l-3.046875 3.46875l3.734375 0q0.28125 0 0.484375 0.203125q0.203125 0.203125 0.203125 0.46875q0 0.28125 -0.203125 0.484375q-0.203125 0.203125 -0.484375 0.203125l-4.9375 0z" fill-rule="nonzero"/><g filter="url(#shadowFilter-p.9)"><use xlink:href="#p.9" transform="matrix(1.0 0.0 0.0 1.0 0.0 2.0)"/></g><defs><filter id="shadowFilter-p.9" filterUnits="userSpaceOnUse"><feGaussianBlur in="SourceAlpha" stdDeviation="2.0" result="blur"/><feComponentTransfer in="blur" color-interpolation-filters="sRGB"><feFuncR type="linear" slope="0" intercept="0.0"/><feFuncG type="linear" slope="0" intercept="0.0"/><feFuncB type="linear" slope="0" intercept="0.0"/><feFuncA type="linear" slope="0.5" intercept="0"/></feComponentTransfer></filter></defs><g id="p.9"><path fill="#ffe599" d="m281.3753 178.43098l0 0c0 7.210144 -5.739197 13.055115 -12.818878 13.055115q-6.4094543 0 -12.818909 0q0 -6.5275574 0 -13.055115l0 0c0 -7.210144 5.7392273 -13.05513 12.818909 -13.05513l0 0c7.0796814 0 12.818878 5.844986 12.818878 13.05513z" fill-rule="evenodd"/><path stroke="#000000" stroke-width="1.0" stroke-linejoin="round" stroke-linecap="butt" d="m281.3753 178.43098l0 0c0 7.210144 -5.739197 13.055115 -12.818878 13.055115q-6.4094543 0 -12.818909 0q0 -6.5275574 0 -13.055115l0 0c0 -7.210144 5.7392273 -13.05513 12.818909 -13.05513l0 0c7.0796814 0 12.818878 5.844986 12.818878 13.05513z" fill-rule="evenodd"/></g><path fill="#000000" fill-opacity="0.0" d="m255.45674 169.17586l25.039352 0l0 17.763779l-25.039352 0z" fill-rule="evenodd"/><path fill="#000000" d="m270.48798 182.85774q-0.28125 0 -0.46875 -0.203125q-0.171875 -0.203125 -0.171875 -0.484375l0 -1.671875l-4.4375 0q-0.3125 0 -0.484375 -0.1875q-0.171875 -0.1875 -0.203125 -0.421875q-0.015625 -0.25 0.140625 -0.453125l5.09375 -6.6875q0.109375 -0.140625 0.25 -0.21875q0.140625 -0.078125 0.3125 -0.078125q0.28125 0 0.453125 0.203125q0.171875 0.1875 0.171875 0.484375l0 6.140625l0.796875 0q0.28125 0 0.484375 0.140625q0.203125 0.125 0.203125 0.46875q0 0.25 -0.203125 0.4375q-0.203125 0.171875 -0.484375 0.171875l-0.796875 0l0 1.671875q0 0.28125 -0.1875 0.484375q-0.1875 0.203125 -0.46875 0.203125zm-4.28125 -3.21875l-0.359375 -0.359375l4.0 0l0 -5.5l0.40625 0.53125l-4.046875 5.328125z" fill-rule="nonzero"/><g filter="url(#shadowFilter-p.10)"><use xlink:href="#p.10" transform="matrix(1.0 0.0 0.0 1.0 0.0 2.0)"/></g><defs><filter id="shadowFilter-p.10" filterUnits="userSpaceOnUse"><feGaussianBlur in="SourceAlpha" stdDeviation="2.0" result="blur"/><feComponentTransfer in="blur" color-interpolation-filters="sRGB"><feFuncR type="linear" slope="0" intercept="0.0"/><feFuncG type="linear" slope="0" intercept="0.0"/><feFuncB type="linear" slope="0" intercept="0.0"/><feFuncA type="linear" slope="0.5" intercept="0"/></feComponentTransfer></filter></defs><g id="p.10"><path fill="#ffe599" d="m151.45674 186.43098l0 0c0 7.210144 5.739212 13.055115 12.818893 13.055115q6.409439 0 12.818893 0q0 -6.5275574 0 -13.055115l0 0c0 -7.210144 -5.739212 -13.05513 -12.818893 -13.05513l0 0c-7.0796814 0 -12.818893 5.844986 -12.818893 13.05513z" fill-rule="evenodd"/><path stroke="#000000" stroke-width="1.0" stroke-linejoin="round" stroke-linecap="butt" d="m151.45674 186.43098l0 0c0 7.210144 5.739212 13.055115 12.818893 13.055115q6.409439 0 12.818893 0q0 -6.5275574 0 -13.055115l0 0c0 -7.210144 -5.739212 -13.05513 -12.818893 -13.05513l0 0c-7.0796814 0 -12.818893 5.844986 -12.818893 13.05513z" fill-rule="evenodd"/></g><path fill="#000000" fill-opacity="0.0" d="m177.37532 177.17586l-25.039368 0l0 17.763779l25.039368 0z" fill-rule="evenodd"/><path fill="#000000" d="m165.4922 190.85774q-1.0 0 -1.78125 -0.421875q-0.765625 -0.421875 -1.203125 -1.140625q-0.4375 -0.734375 -0.4375 -1.640625q0 -0.296875 0.171875 -0.484375q0.1875 -0.203125 0.4375 -0.203125q0.265625 0 0.4375 0.203125q0.171875 0.1875 0.171875 0.484375q0 0.546875 0.28125 1.015625q0.28125 0.453125 0.765625 0.734375q0.484375 0.265625 1.078125 0.265625q0.875 0 1.40625 -0.484375q0.546875 -0.484375 0.546875 -1.359375q0 -0.5625 -0.234375 -1.0q-0.234375 -0.453125 -0.65625 -0.71875q-0.40625 -0.28125 -0.921875 -0.28125q-0.296875 0 -0.5 -0.1875q-0.1875 -0.203125 -0.1875 -0.5q0 -0.296875 0.1875 -0.484375q0.203125 -0.1875 0.5 -0.1875q0.359375 0 0.703125 -0.1875q0.359375 -0.203125 0.578125 -0.53125q0.234375 -0.328125 0.234375 -0.734375q0 -0.59375 -0.4375 -0.984375q-0.421875 -0.40625 -1.078125 -0.40625q-0.515625 0 -0.9375 0.203125q-0.421875 0.1875 -0.671875 0.53125q-0.234375 0.328125 -0.234375 0.75q0 0.296875 -0.171875 0.515625q-0.171875 0.203125 -0.4375 0.203125q-0.265625 0 -0.453125 -0.1875q-0.171875 -0.203125 -0.171875 -0.5q0 -0.765625 0.40625 -1.375q0.40625 -0.625 1.09375 -0.96875q0.6875 -0.359375 1.546875 -0.359375q0.78125 0 1.40625 0.34375q0.640625 0.328125 1.0 0.921875q0.375 0.578125 0.375 1.3125q0 0.515625 -0.234375 0.921875q-0.234375 0.390625 -0.59375 0.6875q-0.359375 0.28125 -0.75 0.46875q0.703125 0.234375 1.140625 0.640625q0.4375 0.40625 0.640625 0.9375q0.21875 0.53125 0.21875 1.15625q0 0.875 -0.453125 1.5625q-0.4375 0.6875 -1.171875 1.078125q-0.734375 0.390625 -1.609375 0.390625z" fill-rule="nonzero"/><g filter="url(#shadowFilter-p.11)"><use xlink:href="#p.11" transform="matrix(1.0 0.0 0.0 1.0 0.0 2.0)"/></g><defs><filter id="shadowFilter-p.11" filterUnits="userSpaceOnUse"><feGaussianBlur in="SourceAlpha" stdDeviation="2.0" result="blur"/><feComponentTransfer in="blur" color-interpolation-filters="sRGB"><feFuncR type="linear" slope="0" intercept="0.0"/><feFuncG type="linear" slope="0" intercept="0.0"/><feFuncB type="linear" slope="0" intercept="0.0"/><feFuncA type="linear" slope="0.5" intercept="0"/></feComponentTransfer></filter></defs><g id="p.11"><path fill="#ffe599" d="m457.3753 194.43098l0 0c0 7.210144 -5.739197 13.055115 -12.818878 13.055115q-6.4094543 0 -12.818909 0q0 -6.5275574 0 -13.055115l0 0c0 -7.210144 5.7392273 -13.05513 12.818909 -13.05513l0 0c7.0796814 0 12.818878 5.844986 12.818878 13.05513z" fill-rule="evenodd"/><path stroke="#000000" stroke-width="1.0" stroke-linejoin="round" stroke-linecap="butt" d="m457.3753 194.43098l0 0c0 7.210144 -5.739197 13.055115 -12.818878 13.055115q-6.4094543 0 -12.818909 0q0 -6.5275574 0 -13.055115l0 0c0 -7.210144 5.7392273 -13.05513 12.818909 -13.05513l0 0c7.0796814 0 12.818878 5.844986 12.818878 13.05513z" fill-rule="evenodd"/></g><path fill="#000000" fill-opacity="0.0" d="m431.45673 185.17586l25.039368 0l0 17.763779l-25.039368 0z" fill-rule="evenodd"/><path fill="#000000" d="m440.65775 198.85774q-0.265625 0 -0.46875 -0.203125q-0.203125 -0.203125 -0.203125 -0.484375l0 -8.125l-0.96875 0.421875q-0.234375 0.09375 -0.4375 0.09375q-0.28125 0 -0.484375 -0.1875q-0.1875 -0.1875 -0.1875 -0.484375q0 -0.21875 0.109375 -0.390625q0.109375 -0.171875 0.328125 -0.25l2.078125 -0.75q0.0625 -0.015625 0.125 -0.03125q0.078125 -0.015625 0.125 -0.015625q0.3125 0 0.484375 0.203125q0.1875 0.1875 0.1875 0.484375l0 9.03125q0 0.28125 -0.203125 0.484375q-0.203125 0.203125 -0.484375 0.203125zm3.5660706 0q-0.296875 0 -0.5 -0.203125q-0.1875 -0.203125 -0.1875 -0.484375q0 -0.28125 0.1875 -0.46875l3.796875 -4.421875q0.390625 -0.46875 0.609375 -0.875q0.21875 -0.421875 0.21875 -0.796875q0 -0.59375 -0.203125 -1.015625q-0.1875 -0.421875 -0.5625 -0.65625q-0.375 -0.234375 -0.890625 -0.234375q-0.515625 0 -0.921875 0.265625q-0.40625 0.25 -0.640625 0.6875q-0.234375 0.4375 -0.234375 0.953125q0 0.265625 -0.1875 0.46875q-0.1875 0.203125 -0.484375 0.203125q-0.28125 0 -0.484375 -0.203125q-0.203125 -0.203125 -0.203125 -0.46875q0 -0.90625 0.40625 -1.609375q0.421875 -0.71875 1.140625 -1.125q0.71875 -0.421875 1.609375 -0.421875q0.90625 0 1.5625 0.390625q0.671875 0.375 1.03125 1.09375q0.375 0.703125 0.375 1.671875q0 0.421875 -0.1875 0.875q-0.171875 0.4375 -0.453125 0.84375q-0.265625 0.390625 -0.546875 0.703125l-3.046875 3.46875l3.734375 0q0.28125 0 0.484375 0.203125q0.203125 0.203125 0.203125 0.46875q0 0.28125 -0.203125 0.484375q-0.203125 0.203125 -0.484375 0.203125l-4.9375 0z" fill-rule="nonzero"/><g filter="url(#shadowFilter-p.12)"><use xlink:href="#p.12" transform="matrix(1.0 0.0 0.0 1.0 0.0 2.0)"/></g><defs><filter id="shadowFilter-p.12" filterUnits="userSpaceOnUse"><feGaussianBlur in="SourceAlpha" stdDeviation="2.0" result="blur"/><feComponentTransfer in="blur" color-interpolation-filters="sRGB"><feFuncR type="linear" slope="0" intercept="0.0"/><feFuncG type="linear" slope="0" intercept="0.0"/><feFuncB type="linear" slope="0" intercept="0.0"/><feFuncA type="linear" slope="0.5" intercept="0"/></feComponentTransfer></filter></defs><g id="p.12"><path fill="#ffe599" d="m345.3753 250.43098l0 0c0 7.210129 -5.739197 13.0550995 -12.818878 13.0550995q-6.4094543 0 -12.818909 0q0 -6.5275574 0 -13.0550995l0 0c0 -7.210144 5.7392273 -13.05513 12.818909 -13.05513l0 0c7.0796814 0 12.818878 5.844986 12.818878 13.05513z" fill-rule="evenodd"/><path stroke="#000000" stroke-width="1.0" stroke-linejoin="round" stroke-linecap="butt" d="m345.3753 250.43098l0 0c0 7.210129 -5.739197 13.0550995 -12.818878 13.0550995q-6.4094543 0 -12.818909 0q0 -6.5275574 0 -13.0550995l0 0c0 -7.210144 5.7392273 -13.05513 12.818909 -13.05513l0 0c7.0796814 0 12.818878 5.844986 12.818878 13.05513z" fill-rule="evenodd"/></g><path fill="#000000" fill-opacity="0.0" d="m319.45673 241.17586l25.039368 0l0 17.763779l-25.039368 0z" fill-rule="evenodd"/><path fill="#000000" d="m332.5762 254.85774q-0.265625 0 -0.46875 -0.203125q-0.203125 -0.203125 -0.203125 -0.484375l0 -8.125l-0.96875 0.421875q-0.234375 0.09375 -0.4375 0.09375q-0.28125 0 -0.484375 -0.1875q-0.1875 -0.1875 -0.1875 -0.484375q0 -0.21875 0.109375 -0.390625q0.109375 -0.171875 0.328125 -0.25l2.078125 -0.75q0.0625 -0.015625 0.125 -0.03125q0.078125 -0.015625 0.125 -0.015625q0.3125 0 0.484375 0.203125q0.1875 0.1875 0.1875 0.484375l0 9.03125q0 0.28125 -0.203125 0.484375q-0.203125 0.203125 -0.484375 0.203125z" fill-rule="nonzero"/><g filter="url(#shadowFilter-p.13)"><use xlink:href="#p.13" transform="matrix(1.0 0.0 0.0 1.0 0.0 2.0)"/></g><defs><filter id="shadowFilter-p.13" filterUnits="userSpaceOnUse"><feGaussianBlur in="SourceAlpha" stdDeviation="2.0" result="blur"/><feComponentTransfer in="blur" color-interpolation-filters="sRGB"><feFuncR type="linear" slope="0" intercept="0.0"/><feFuncG type="linear" slope="0" intercept="0.0"/><feFuncB type="linear" slope="0" intercept="0.0"/><feFuncA type="linear" slope="0.5" intercept="0"/></feComponentTransfer></filter></defs><g id="p.13"><path fill="#ffe599" d="m586.6299 155.93492l0 0c0 7.210144 -5.739197 13.055115 -12.818848 13.055115q-6.409485 0 -12.818909 0q0 -6.5275574 0 -13.055115l0 0c0 -7.210144 5.739197 -13.05513 12.818909 -13.05513l0 0c7.079651 0 12.818848 5.844986 12.818848 13.05513z" fill-rule="evenodd"/><path stroke="#000000" stroke-width="1.0" stroke-linejoin="round" stroke-linecap="butt" d="m586.6299 155.93492l0 0c0 7.210144 -5.739197 13.055115 -12.818848 13.055115q-6.409485 0 -12.818909 0q0 -6.5275574 0 -13.055115l0 0c0 -7.210144 5.739197 -13.05513 12.818909 -13.05513l0 0c7.079651 0 12.818848 5.844986 12.818848 13.05513z" fill-rule="evenodd"/></g><path fill="#000000" fill-opacity="0.0" d="m560.7113 146.6798l25.039368 0l0 17.763779l-25.039368 0z" fill-rule="evenodd"/><path fill="#000000" d="m569.979 160.36168q-0.265625 0 -0.46875 -0.203125q-0.203125 -0.203125 -0.203125 -0.484375l0 -8.125l-0.96875 0.421875q-0.234375 0.09375 -0.4375 0.09375q-0.28125 0 -0.484375 -0.1875q-0.1875 -0.1875 -0.1875 -0.484375q0 -0.21875 0.109375 -0.390625q0.109375 -0.171875 0.328125 -0.25l2.078125 -0.75q0.0625 -0.015625 0.125 -0.03125q0.078125 -0.015625 0.125 -0.015625q0.3125 0 0.484375 0.203125q0.1875 0.1875 0.1875 0.484375l0 9.03125q0 0.28125 -0.203125 0.484375q-0.203125 0.203125 -0.484375 0.203125zm5.87854 0q-1.015625 0 -1.734375 -0.609375q-0.71875 -0.625 -1.09375 -1.796875q-0.359375 -1.171875 -0.359375 -2.8125q0 -1.625 0.359375 -2.796875q0.375 -1.171875 1.09375 -1.78125q0.71875 -0.625 1.734375 -0.625q1.0 0 1.71875 0.640625q0.71875 0.625 1.078125 1.796875q0.375 1.15625 0.375 2.765625q0 1.625 -0.375 2.796875q-0.359375 1.15625 -1.078125 1.796875q-0.71875 0.625 -1.71875 0.625zm0 -1.390625q0.609375 0 1.0 -0.5q0.40625 -0.5 0.609375 -1.359375q0.203125 -0.875 0.203125 -1.96875q0 -1.078125 -0.203125 -1.9375q-0.203125 -0.875 -0.609375 -1.375q-0.390625 -0.515625 -1.0 -0.515625q-0.625 0 -1.03125 0.5q-0.390625 0.5 -0.59375 1.375q-0.1875 0.859375 -0.1875 1.953125q0 1.109375 0.1875 1.984375q0.203125 0.859375 0.609375 1.359375q0.40625 0.484375 1.015625 0.484375z" fill-rule="nonzero"/><g filter="url(#shadowFilter-p.14)"><use xlink:href="#p.14" transform="matrix(1.0 0.0 0.0 1.0 0.0 2.0)"/></g><defs><filter id="shadowFilter-p.14" filterUnits="userSpaceOnUse"><feGaussianBlur in="SourceAlpha" stdDeviation="2.0" result="blur"/><feComponentTransfer in="blur" color-interpolation-filters="sRGB"><feFuncR type="linear" slope="0" intercept="0.0"/><feFuncG type="linear" slope="0" intercept="0.0"/><feFuncB type="linear" slope="0" intercept="0.0"/><feFuncA type="linear" slope="0.5" intercept="0"/></feComponentTransfer></filter></defs><g id="p.14"><path fill="#ffe599" d="m342.70084 186.0084l0 0c0 7.210144 5.739197 13.055115 12.818878 13.055115q6.4094543 0 12.818909 0q0 -6.5275574 0 -13.055115l0 0c0 -7.210144 -5.7392273 -13.055115 -12.818909 -13.055115l0 0c-7.0796814 0 -12.818878 5.8449707 -12.818878 13.055115z" fill-rule="evenodd"/><path stroke="#000000" stroke-width="1.0" stroke-linejoin="round" stroke-linecap="butt" d="m342.70084 186.0084l0 0c0 7.210144 5.739197 13.055115 12.818878 13.055115q6.4094543 0 12.818909 0q0 -6.5275574 0 -13.055115l0 0c0 -7.210144 -5.7392273 -13.055115 -12.818909 -13.055115l0 0c-7.0796814 0 -12.818878 5.8449707 -12.818878 13.055115z" fill-rule="evenodd"/></g><path fill="#000000" fill-opacity="0.0" d="m368.61942 176.75328l-25.039368 0l0 17.763779l25.039368 0z" fill-rule="evenodd"/><path fill="#000000" d="m352.70776 190.43517q-0.265625 0 -0.46875 -0.203125q-0.203125 -0.203125 -0.203125 -0.484375l0 -8.125l-0.96875 0.421875q-0.234375 0.09375 -0.4375 0.09375q-0.28125 0 -0.484375 -0.1875q-0.1875 -0.1875 -0.1875 -0.484375q0 -0.21875 0.109375 -0.390625q0.109375 -0.171875 0.328125 -0.25l2.078125 -0.75q0.0625 -0.015625 0.125 -0.03125q0.078125 -0.015625 0.125 -0.015625q0.3125 0 0.484375 0.203125q0.1875 0.1875 0.1875 0.484375l0 9.03125q0 0.28125 -0.203125 0.484375q-0.203125 0.203125 -0.484375 0.203125zm6.175415 0q-1.0 0 -1.78125 -0.421875q-0.765625 -0.421875 -1.203125 -1.140625q-0.4375 -0.734375 -0.4375 -1.640625q0 -0.296875 0.171875 -0.484375q0.1875 -0.203125 0.4375 -0.203125q0.265625 0 0.4375 0.203125q0.171875 0.1875 0.171875 0.484375q0 0.546875 0.28125 1.015625q0.28125 0.453125 0.765625 0.734375q0.484375 0.265625 1.078125 0.265625q0.875 0 1.40625 -0.484375q0.546875 -0.484375 0.546875 -1.359375q0 -0.5625 -0.234375 -1.0q-0.234375 -0.453125 -0.65625 -0.71875q-0.40625 -0.28125 -0.921875 -0.28125q-0.296875 0 -0.5 -0.1875q-0.1875 -0.203125 -0.1875 -0.5q0 -0.296875 0.1875 -0.484375q0.203125 -0.1875 0.5 -0.1875q0.359375 0 0.703125 -0.1875q0.359375 -0.203125 0.578125 -0.53125q0.234375 -0.328125 0.234375 -0.734375q0 -0.59375 -0.4375 -0.984375q-0.421875 -0.40625 -1.078125 -0.40625q-0.515625 0 -0.9375 0.203125q-0.421875 0.1875 -0.671875 0.53125q-0.234375 0.328125 -0.234375 0.75q0 0.296875 -0.171875 0.515625q-0.171875 0.203125 -0.4375 0.203125q-0.265625 0 -0.453125 -0.1875q-0.171875 -0.203125 -0.171875 -0.5q0 -0.765625 0.40625 -1.375q0.40625 -0.625 1.09375 -0.96875q0.6875 -0.359375 1.546875 -0.359375q0.78125 0 1.40625 0.34375q0.640625 0.328125 1.0 0.921875q0.375 0.578125 0.375 1.3125q0 0.515625 -0.234375 0.921875q-0.234375 0.390625 -0.59375 0.6875q-0.359375 0.28125 -0.75 0.46875q0.703125 0.234375 1.140625 0.640625q0.4375 0.40625 0.640625 0.9375q0.21875 0.53125 0.21875 1.15625q0 0.875 -0.453125 1.5625q-0.4375 0.6875 -1.171875 1.078125q-0.734375 0.390625 -1.609375 0.390625z" fill-rule="nonzero"/><path fill="#f3f3f3" d="m120.62467 246.0l16.87664 8.375336l0.12335205 4.4986877l-17.249336 -8.000015z" fill-rule="evenodd"/><path fill="#000000" fill-opacity="0.0" d="m121.50131 247.87401l14.866135 7.3700867" fill-rule="evenodd"/><path stroke="#000000" stroke-width="1.0" stroke-linejoin="round" stroke-linecap="butt" d="m121.50131 247.87401l14.866135 7.3700867" fill-rule="evenodd"/><path fill="#000000" fill-opacity="0.0" d="m121.18635 250.18636l15.433067 7.0550995" fill-rule="evenodd"/><path stroke="#000000" stroke-width="1.0" stroke-linejoin="round" stroke-linecap="butt" d="m121.18635 250.18636l15.433067 7.0550995" fill-rule="evenodd"/></g></svg>